<svg xmlns="http://www.w3.org/2000/svg" viewBox="0 0 145.1 156.58" width="145.1" height="156.58"><path d="M144.4 20.8c-1.2-.1-.6-1.5-.6-2.2s-.8-1.5-1.2-1.4c-.7-.2-.8-.6-.8-1.3 0-.2-.6-.9-.7-1.1a5.36 5.36 0 0 0-.5-1.1c-.2-.5.1-1.4-.1-1.7-.5-1-1.8.2-1.2.8s-.2 1.2-.6.8.1-1.8-.5-1.8-.6-.1-1.1-.6c-.2-.1-1-.4-1-.6s-.5-.6-.5-1c0-.2-.7-.4-.8-.5-.6-.5-.5-.6-.5-1.2s-.4-1.3-.2-1.7a10.1 10.1 0 0 0 .3-1.7c0-.3.3-1-.1-1.2a3.71 3.71 0 0 0-1.5-.4c-.7 0-1.4.3-1.9-.2.5-.1.2-.6.6-.9s.4-.6-.2-.9-1.4 1-2.5.5a2.62 2.62 0 0 1-.9-.5c-.3-.2-.2-.7-.6-.9a2.9 2.9 0 0 0-1.1.3c-.1.4.8.5.5.7-.3.4-.9-.1-1.2.5-.1.2.1.5.1.7 0 .4-.5.5-.5.8 0 1-.7 1.7-.7 2.8a9 9 0 0 1-.8 2.1c-.1.4-.3 1.1-.1 1.4 0 0 1.3.7.5.7-.3 0-.1.5-.2.7s-.4-.1-.6.1a1.41 1.41 0 0 0 .1.9c.4.4.2.3-.1.7s-.2.6-.4.9.2 1 .2 1.3.1 1.2-.2 1.5-1 1.6-1.6 1a2.22 2.22 0 0 0-1.1-.5c-.6 0 0 .5-.1.8s-.4.3-.7.5-.1 1.2-.6 1.2c-.1 0-1.8-1.7-1.9-1.8a1.25 1.25 0 0 0-1.2-.3c-.3.1-.3.5-.7.3s-.3-.4-.1-.6c-1-.2-.5.4-.5.9-.2-.1-.6-.3-.8-.1s-.1.6-.2.8-.3.1-.5.3-1.1.1-1.1.7c0 .2-.2.2-.1.4s.5 0 .4.5c-.1.3-1.5.4-1 .6.9.5.3.2.3.9s-.8.6-.8 1.1 1.1-.2.7.7a2.7 2.7 0 0 1-.8.7.76.76 0 0 0-.2.5c0 .3-.6.3-.8.5s-.1.5-.3.6-.4-.3-.7-.2l-.3.1c-.1 0 0 .4 0 .5s-.3 0-.5.1c-.3.4-.2.6-.7.8a6.12 6.12 0 0 0-1.2.5c-.3.3-.1.9-.5 1.3s-.8.2-1.4.1-.9 0-1.4-.3c-.3-.2-.5.1-.8.1s-.5-.2-.7-.2a1.74 1.74 0 0 0-1.1.6c-.5.5-.9-.2-1.3-.2-.8 0-.8.4-1.2.8-.1.1-.7 0-.9 0s-.3.2-.6.2c-1.2.2-1.3-1.1-2.4-1.1-.8 0-2.6-.8-3.3-.1-.2.2-.9.1-1.1.3s-.9.1-1.1.3c-.8.8-2.4-.6-2.2 1.2a8.81 8.81 0 0 1 .2 1.7c0 .5.3.9.3 1.3 0 .2.3.3.3.5v1.2a3 3 0 0 0 .4.8c.7.7.6 1.2 1 2s1.5 1.3 2.2 1.9a2.07 2.07 0 0 1 .6 1c0 .5.6.9.6 1.3s-.2.4-.4.6 0 .6-.1.9c-.2.5-.7.7-1 1.1s-.1.9-.3 1.2a6.08 6.08 0 0 1-1 1.4 2.4 2.4 0 0 1-1.2.7c-.1 0-.3.2-.5.1s.2-.4.1-.5c-.4-.6-.5.4-1-.1-.1-.1-.5.2-.5-.1a2.2 2.2 0 0 1 .1-.8c-1.1.7-.4-.2-1-.8-.3.3-.1.7-.6.7-.3 0-.6-.7-.9-.7s-.4-.2-.8.3c-.2.2-.5 0-.6-.2-.2.3 0 .9-.3 1.1l-.6-.2c-.3-.1-.7-.2-.9 0s-.7-.2-1-.2h-1.7c-.6 0-.5-.4-.5.2 0 .4-.8-.4-1-.5s-1.4.1-1.4-.6c0-1.2-.3-.1-1-.7l-.7-.3c-.1 0-.4.4-.5.5-.6.6-1-.8-1.7-.4-.4.2-2.6-.1-2.3-.3.1-.1.9-.6.3-.6-.2 0-.6.2-.8.1s-.3-.6-.6-.7c-.5-.2-.6.3-1.1-.2-.3-.3-1 .6-1.4-.3s1.5-.8 1.6-1.4-1.2-.2-1.2-.6-.5-.2-.5-.4c0-.7-.2-.2-.6-.5-.2-.2-.8-.8-.8-1.1.1-.5.9-.1.9-.6a3.33 3.33 0 0 0-.6-.3c-.1-.1-.1-.5-.1-.7 0-.6-1-.4-1-.7 0-.7-1.3-.2-1.5-.7s.7-.9-.3-.9-1 1.7-2 1.9c-.7.1-.8-.3-.8.8 0 .8-.7 0-.8-.1a8.12 8.12 0 0 0-1-.9.52.52 0 0 0-.8.3c0 .4.5.3.6.5.6.7-.2.8-.7 1.3s-1.2-.2-1.5.3c-.1.2 0 .5-.2.7a5.58 5.58 0 0 1-.8.5c-.6.6.8 1.1.1 1.8-.5.5-.3 1.3-.6 1.9-.2.4-1.1 1.2-1.1 1.6s.2.5.2.8-.2.6.1.9c.5.5-.1 1.2-.8 1 .7-.7-.2-.9-.8-.3a9.62 9.62 0 0 0-1.8 2.2c-.3.5-.3 1-.7 1.5-.1.1-.3 0-.4.1s-.3.2-.4.4.1.3-.1.4l-.4.4c-.1.4-.1.8-.3 1s-.3.1-.5.2-.4.4-.6.6-.6.2-.8.3-.5.2-.5.5c0 .1-.5.2-.7.2-.4.1-.7.1-.7.6 0 .2.6.4.3.7l-.5.5s-.3.1-.2.1c-.2.1 0 .2-.1.4.1-.1-.1.3-.1.3s-.3 0-.4.1 0 .2-.1.3a.52.52 0 0 1-.1.5 12.49 12.49 0 0 0-.8 1.2c-.2.2-.9 0-1.2.4.3.1.7.1.9.3a.6.6 0 0 1-.6.3c-.6 0-.5.2-.9.3-.2 0-.4.2-.6.1-.4-.2 0-.5-.3-.7-.6-.3-1.2.4-1.5.7-.5.5-.8.1-1.2-.2-.8-.6-.5 0-1.2.3-.3.1-.7-.1-.9.1s-.5.4-.8.7-.7.8-.2 1.4c.8.8.3.8-.5.8-.2 0-.5.3-.8.1s0-.4-.2-.6-.6-.5-.9.1c-.2.4 0 .7-.1 1-.2.7-.5.3-1.2.3-.4 0-.9.2-.9.7 0 .3.1.7-.2.9s-.8-.2-.8.2.3 1.2-.3 1.2c-.3 0-.5-.7-1-.7-.3 0-.5.2-.7.2-.4 0-.5-.3-.9-.1.6.1.7.4.2.7-.2.1-.4-.2-.6-.1s0 .6-.3.6-1.6-.1-1.6.4c0 .2-.9.3-1.1.5s-1.9 1.2-2.1 1-.9.4-.2.4c.3 0 .3.6.4.9 0 0 .3.1.3.2 0-.1-.2.4-.2.5 0 .8-.5.7-1 .5a3.19 3.19 0 0 0-1.4-.3 3.35 3.35 0 0 1-1 0 2.54 2.54 0 0 0-.2-.7c-.4-.4-1.5 1.6-1.9 2-.6.6-1.7.5-2.1 1.2s-.3 1.2-.8 1.6-1.5.2-1.9.7a4.92 4.92 0 0 1-1.5 1c-.3 0-.3.5-.3.6-.2.3-.3.3-.6.5a4.62 4.62 0 0 0-.7.7c-.3.3-.7.2-1 .5-.1.1-.4.3-.4.5s-.2.1-.3.2c-.3.3-.4.3-.5.6-.3.6-1.2.6-1.2 1.5s.6 1.6-.2 2.3c.4 0 .4.3.2.6.2.1.2.3.1.6h.6c0-.2 0-.1.1-.1-.1.2-.2.2-.3.3v-.5c-.2-.3-.2.4-.2.3 0 .1-.2.2-.2.3.2-.2.2-.2.5-.2-.2.5-.5.2-.9.5a1.45 1.45 0 0 0-.2.7.79.79 0 0 0 .5.7c-.2.2.1.4-.1.7.3 0 .5 0 .6-.2h.1c-.2.7.6.6.6 0h.1c.1.8.4 1.1.3 1.8h.1c0-.4.3-.9.7-.7.2-.3.6.2.9.3s.4-.2.6.2l.1-.1c.2.6 1.1.3 1.4-.1 0 .1-.9 1.7-.3 1.7.3 0 .3-.3.5.1s.1.2 0 .5-.3.5-.6.7v.1c.7-.1 1.5.6 1.1 1.1.3-.1.3-.3.6-.3.2.8.1.8-.3 1.5.3.4-.3.2-.3.7s.3.4.3.6a.27.27 0 0 1-.3.3c0 .1 0 .2.1.2.3-.1.9.2.5-.6.4.3.5-.5.8-.1 0-.2.1-.2.1-.5h.1v.2h.1c0-.6.4-.4.6-.5s.1-.2.2-.2c.3 0 .2.3.6.2v-.1c-.1-.1-.5-.4-.2-.7s.8 0 .5-.5c.1 0 .1-.1.2-.1-.3 0-.4-.3-.6-.1-.2-.1-.1-.2.1-.3 0 0 .2.2.2-.1s-.4-.1-.6-.2.1.2-.1.1c0-.3.2-.3.5-.1.1-.3.1-.6.6-.6v-.1c-.6-.3-.1-1.1-1-1 .9-.6.8.5 1.1.9.3-.4.6-.3.6.3 0 .4.3.2.6.2a.86.86 0 0 1 .8.8 2.25 2.25 0 0 1 .7-.1 2.34 2.34 0 0 1 .2 1.2.55.55 0 0 1 .5.3h.1c0-.2.1-.2.1-.3.2.2.2.4.3.7.1-.1-.1-.3.2-.2v-.1c-.2 0-.1-.1-.2-.2a.78.78 0 0 0 .3-.7h.1c-.2.3-.1.5.2.7.1.1 0 .8.1 1h.1c-.1-.6.9-.1.9-.7 0-.1.2-.1.2-.1s-.1.3-.1.2c.1.3-.2.3 0 .6h.1c.1-.2.2 0 .2.2h-.2c0-.2.1-.4.1-.6h.1c.3.2.4.2.6.5-.2 0-.3.1-.5.3.2.1.3 0 .3 0s.5.1.5-.1c0-.4.3.4.2.3.2.2.3 1.1.7 1.1a4.4 4.4 0 0 0 1-.2c.2-.1.1.2.1-.2a1.33 1.33 0 0 0-.3-.5 1.69 1.69 0 0 1 .6.3c.3.1.4-.6.7-.3 0-.1.1-.1.1-.3h.1c.1.4.1.5-.2 1.1.2 0 .7.3.7.4 0 .7.5.3.5.8 0 .3.6.5.9.2a3.11 3.11 0 0 1 .9-.7c.2.2.9 0 .7-.3.1 0 .1 0 .1.1.1-.2.7-.7.7-.6 0-.1.4-.2.6-.2s.1-.2.2-.3a4.35 4.35 0 0 0 .6-.7c.1-.3.3-.8.6-.9a9.82 9.82 0 0 1-.8 1.8s-.5.5-.1.5c.2 0 .4.1.6.1.5 0 .8-.5 1.2-.7s.7-.1 1-.2.3-.3.7-.3v.1c-.3 0-1.4.9-1.5.6-.3.1-1 .3-.9.8a2.23 2.23 0 0 0-1.4 0c-.4.1-.4.5-.7.5-.5 0-.8 1.4-.4 1.4v.1c-.4 0-.9.6-1.1.8-.5.5-.5.3-.5 1 0 .3.6 0 .7-.1s.1.1.2.1a2.65 2.65 0 0 1-.6.5l-.1-.1a2.88 2.88 0 0 0 .3 1.6c.3.3.3-.3.3-.3s-.1-.3.2-.3.7.2.7-.2h.1c-.1.3-.3.6-.1.8s.5-.1.5-.3c0-.5.7.4.7.1a.9.9 0 0 1 .6-.6 3.29 3.29 0 0 0-.3.6c-.1.2 0 .1-.1.3s-.5.2-.5-.1-.5.2-.6.2a2.12 2.12 0 0 1-.7-.3c0 .3-.1.8.1.9l-.1.1h.1c-.3.4.4.8.1 1.1v.1c.4 0 .4-.3.7-.1.1-.1 0-.3.3-.2v.1c-.3.1-1.4.6-1.4.9s.4 0 .3.5c0-.1-.3.1-.3.1a1.43 1.43 0 0 0-.3 1.1h-.1c0-.3-.1-.2-.2-.3-.1.2-.4.6-.6.6s.4.6.6.7c0-.1.1-.1.1-.2 0 .6-.8 0-.9-.2h-.1a1.44 1.44 0 0 0-.2.3v.1h.3c-.2.1-.3.1-.3.2l-.1-.1c0 .3.5.8-.2.9v-.3h-.1a9.22 9.22 0 0 1-.5.8c.2.4-.3.7 0 1.1.1-.1.1-.1.2-.1v.1c-.3 0-.4.1-.2.3-.1 0-.2 0-.1.1.3 0 .4.1.7.1v.1c-.3.1-.5.2-.8.3a.32.32 0 0 0-.3-.3c0 1-1.3 1.7-1.5 2.5h.6v.1c-.3 0-.5.1-.2.2-.3 0-.5.2-.7.5v-.1a3.27 3.27 0 0 0-.9 1.6c-.1.3 0 .9-.2 1.1s-.4-.1-.6.2c.9 0 .1 1.4.1 1.8s.2.8.7.8c.1 0 .5.9.7.1 0 .1.1.1.1.2-.3.1-.1.7.1.8.4.1 1-.6.6-.9l.1-.1c-.2-.2-.1-.4-.3-.7a.22.22 0 0 1 .2.2c.1-.1.1-.2.2-.3-.1.2-.2.7.2.5-.1.2-.3.6 0 .5h.1c0 .4.2.4.5.2 0 .2-.1.1-.1.1a.55.55 0 0 0-.5.3h.1v-.1h.1v.1c-.4.3-.5.8-.9.9v.1c.7-.1 1.1.7 1.6 1h.1v.1h.1c.1-.1-.1-.1.1-.1-.1-.1-.1-.3-.2-.5.1.1.2.1.2.3h.1c.6-.3-.2-.6-.3-.9.1.1.2.2.2 0 .2.2.5.7.6.2.1.1.1.1.2.1-.1.1-.1.2 0 .5a1.17 1.17 0 0 1 .7-.2 4.88 4.88 0 0 0-.3-.7h.1c.1.2.1.5.3.6.3.3.8-.2 1.1-.2.5 0 .6-.8-.1-.8v-.1c.4.2 1.1.1.9-.5.2.2.1.4 0 .6a4.17 4.17 0 0 0 .6.2.35.35 0 0 1-.1.2c0-.1.1.1.1.1h-.2a1.44 1.44 0 0 1 .2.3.37.37 0 0 0 .1-.3c0 .1.2.3.2.4 0 .4.5-.6.5-.2 0 .1.5.1.6.2.3.2-.3.3.3.3.3 0 0 .1.2.1a2.85 2.85 0 0 1 .7.8c.2.4.5.9.1 1.2-.3-.3-.4-.8-.7-1.1-.4-.5-1.2-.2-.8.3l-.1-.1h-.1c-.1.2.1.2.1.2a.63.63 0 0 1-.5.6c.1-.2.2-.3-.1-.3v-.1c.6-.1-.4-1-.6-1.2s-.7-.4-.8-.5-.3 0-.3.3l.1-.1c0 .1 0 .2.1.1-.1.4-1 .5-1 .3s-.5-.3-.8-.2l.1.1a2.65 2.65 0 0 1-.5.6c-.2-.2-.7-.4-.5.1h-.2a1 1 0 0 0 .1.3l-.1-.1c-.2.3-.4.5-.2.9h-.1a1.13 1.13 0 0 1-.1-.8 1.88 1.88 0 0 0-.8-.2c.1-.1.1-.1.2-.1s-.1-.1-.1-.2c-.1.1-.2 0-.3.1.1.3-.2.3-.5.1 0 .1-.1.2-.1.3h-.1v-.1a1.06 1.06 0 0 0-.5.2c-.5-.1-.5-.4-.7-.7h-.1c.1.3.4 1.2.1 1.5a1.42 1.42 0 0 0-.6-.2c-.1-.1-.1-.3 0-.2-.1-.2-.5-.7-.3-.9-.4-.5-.5 0-.8.1v.1h.2v.1c-.2.2-.1.4.2.3l-.1.1c0 .1.1 1 .3 1-.2.2 0 .2-.3.2.1.4.5.4.5.8h-.1c0-.3-.1-.2-.2-.3-.2.2-.8.3-.8-.1 0-.1-.2-.1-.2 0v.7c0 .1-.2.4-.2.5-.2-.4-.6-.7-.9-.5q0-.45.3-.3c-.1-.2-.2-.3-.3-.5.1-.1.1-.1.1-.2a3.33 3.33 0 0 0-.6.3c-.3-.6-.7-.2-1.2-.5v.1c.3.1.6.6.9.3 0 .1.1.2.1.3-.3.1-.2-.1-.2-.2a3 3 0 0 0-.3 1.2h.1c.2-.2.5.1.6.3l-.1.1c.7.3-.7 1.7-1 1.7v.1l.2.2c-.3.9-.4-.3-.5-.5-.3.5-.6.7-.8 1.1s-.5 1-.8 1.4c-.1.1-.4.3-.6.5l-.5.5c-.1.3.4.8.6 1-.6.5-.3 2.1.1 2.6l.1-.1h.1v.2c.3-.2.4 0 .5.2.2-.1.7-.4.8-.3.3-.2.8 0 1.1.1v.1c-.2 0 0 0-.1.1h-.1v-.1h-.1v.1a1.08 1.08 0 0 0-.7-.2h-.4c.1.3 0 .5-.3.3a.35.35 0 0 1-.2.1v.1c.2.1.2.2.5.1v.1a2.48 2.48 0 0 0-.9.1l.1-.1c-.3-.2.2-.4-.1-.7 0 0-.5.1-.6.1s0-.1-.1-.1v-.1h.1v-.1c-.2-.1-.1-.1-.2 0h-.3c.5-1-.7.3-1 .6a1.7 1.7 0 0 1-.8.6v.1c.3-.1.5-.3.8-.2v.1c-.4-.1-.9.8-1-.1-.5.3-.8.9-1.2 1.1-.6.3-2.7-.1-1.5.7a4.79 4.79 0 0 0 2 .7c.1 0 1.2.3 1.2-.1 0-.1.9.1.9.1a1.28 1.28 0 0 1 .7-.5v-.1h-.2c.1-.2.2-.2.2-.3h.1c-.1.4.6.6.8.8s1.1.7 1.1.7l.7.6c.2.1.8-.5 1 .1.1-.3.4-.4.8-.2.1-.1 1.5-.7 1.5-.5 0 .5 1.1-.6 1.1.2h.1c.1-.3.1 0 .1 0 .2-.1.4.1.6.3.3-.2.4-.1.7-.3.2.2.4.3.2.5q.3.15.3.3c-.3-.4-.5-.1-.7.1s-.3 0-.3.3.1.6.3.6c-.1.1-.1.1-.2.1.1.1.2.1.2.2l-.1-.1c-.1.1-.6 0-.7-.1.9-1.1-1.7-.9-1.7-.9h-.1v.2a.1.1 0 0 1-.1-.1c-.2.1-.3.1-.3-.1h-.1c0 .3-.2.4 0 .6-.3.2-.3.5 0 .6l-.1.1a.22.22 0 0 1 .2.2c-.4.3 1 .6.2.7v.1c.5.1.8-.4.9 0s-.3.5-.5.7l-.1-.1c0 .1 0 .2-.1.1 0-.4-.3-.3-.7-.3 0 .2-.1.1-.1 0l-.1.1c-.1-.2-.3-.2-.5 0 .1-.1.2-.2 0-.2l.1-.1c0-.1-.5-.5-.5-.4 0-.3-.3.2-.3.2s-.9.7-.9.4-.5.2-.6.3a1.16 1.16 0 0 0-.2 1h.1a1.49 1.49 0 0 1 .3-.7c.6-.3.1.6.1.8 0 .4.9.3 1 .5h.4v-.2h.1a3.33 3.33 0 0 1 .3.6c.1.1 0 .2.2.3s.4 0 .6.2c.4.4.9.1.6-.3.1 0 .1 0 .2-.1.1.5.1.8.8.5.3.2 1.3-.5 1-.9.1.1.1.1.1.2.2-.1.3-.2 0-.3a.45.45 0 0 0 0-.5c.2 0 .1 0 .1.1l.1-.1a.2.2 0 0 0 .2-.2.55.55 0 0 1-.3-.5c.2.2.6.3.7.6-.4.1-.5.4-.5.8l.1-.1c.2.3.6.1.8.2s.2.5-.1.6v.1c.3-.1.5-.2.7 0v.1c-.4 0-.7.4-.9.7l.1.1c-.2.2-.3.1-.6.3-.1.1-.4.1-.5.1s-.1.4-.1.6c.5-.6 1.1 0 1.2.3.3-.4-.4-.6-.7-.8a1.1 1.1 0 0 1 .8 0l-.1.1a3.33 3.33 0 0 0 .6-.3c.3.1-.1.6-.3.7 0 .1.1.3.2.3s.3-.3.5-.3.5-.6.5-.2c0 .2.3.1.3 0v.3h-.2c.3-.1.2-.5.3-.7.1.1.1.1.1.2 0-.2.6-.6.4-.6s-.7 0-.7-.3c0-.5.9.2 1 .1 0 .1 0 .1.1.1v.1c-.2.2-.1 0 0 .2.1-.2.2 0 .2 0a2.19 2.19 0 0 0 .5-.3h.1a1.27 1.27 0 0 1-.1.6c.1 0 .1-.1.2-.1v.3c.2-.1.3-.1.5-.2-.1 0-.1-.1-.2-.1v-.1c.5-.2 0-.5-.3-.5.1-.1.1-.2.2-.2-.2-.5-.7.2-1.1-.2-.2-.2-.4-.4-.2-.7l.1.1a.1.1 0 0 1 .1-.1v.2h.3v-.2c.3.2.5.7.7.2h.1c.1.6.6-.3 0-.4.2-.4 1.1-.6.7-.1.1.2-.1.5 0 .9.2 0 .3-.1.5-.2 0-.1-.2 0-.1-.2h.1c0 .4.3.3.6.3.2-.2.6 0 .3.3-.1.2-.2 0-.3 0l-1 .3.2.2c.1-.2.4-.1.7 0v.1c-1-.1 0 1.2.2.9h.1c0 .4-.3.4-.5.7h-.1c.5-.8-.5-.5-.5-.9a1 1 0 0 0-.6.5 1.27 1.27 0 0 0 .1-.6h-.1c0 .1-.1.2-.1.3a.31.31 0 0 0-.2-.1c-.1.4-.5.3-.5.7h-.1v-.5h-.1c-.1.2-.3.5-.1.7v.1c-.3.3-.3-.1-.6-.1-.1 0-.2.1-.3.2-.4.4.5.3.6.3v.1c-.3.1-.3.1-.3.3.2 0 .1-.1.1-.1.5.4.7-.1.8-.5l.1.1c.2-.1.1-.1 0-.2a.63.63 0 0 0 .6 0 .49.49 0 0 0-.1.3c.1 0 .1 0 .2.1-.2 0-.2.1-.5.1v.1c.3 0 0 .1 0 .2 0-.2-.2-.3-.3-.5l-.2.2.1.1c-.1 0-.2-.1-.2.1-.1-.1-.1-.1-.1 0-.2-.2-.4-.1-.5.2h-.1c0-.2-.1-.1-.1-.1.3-.4-.2-.6-.3-.2.4.1-.3.6-.6.9-.1.1-.4.3-.3.6s.9.3.5.9c.3.3.9-.3.2-.3.3-.2.7-.4.2-.7l.1-.1c.4.4.2-.5.7-.2h-.2v.1a3.26 3.26 0 0 1 2.2.1c.2-.5.3-1.1.8-1.4a.94.94 0 0 1-.1-.7 2 2 0 0 1 .7-.6c-.4.4-.2 1 0 1.4.1-.1.7 0 .7-.2s-.3-.2-.3-.1l-.1-.1c.3-.1.4-.2.7-.6-.2.6.3.5.6.3-.1.3-.2.5-.6.5v.1c.7-.1 1 .5 1.2 0-.1.1 0-.5 0-.5s.2-.2.2-.3v.4h-.5l.1-.1c-.1-.1-.3.1-.2-.2.2 0 .1.1.1.1l.1-.1v.1c.3-.2.6-.3.6-.5.2 0 .3 0 .2-.3H28c-.1.5-.7-.1-.2-.2v-.1c-.2 0-.2-.1-.2-.3.6.5.3-.8.6-1.1a4.88 4.88 0 0 0-.3-.7v-.1h.7c-.3.1-.3.3-.1.6h-.2c.6 1 2.2 0 2.2-.9h-.1c0 .2-.1.2-.1.3s.1.1-.1.1c0-.4-.4-.1-.6.1.2-.3.1-.5-.3-.5.2-.1.6 0 .5-.2 0 0 .1-.7.3-.5h.1a.47.47 0 0 0-.5-.5v.1c.1.2 0 0 0 .2-.3-.6-.4.2-.7.2.1-.1.5-1.5.2-1.1s-.5.7-1.2.5c.2-.3 0-.3 0-.5h-.1v.1h-.1a2.34 2.34 0 0 0-.7-.7l.1-.1c-.1-.1-.2-.1-.3-.2.1-.2-.2-.3-.2-.7h.1c0 .1.1.1.1.2.1-.2.3-.2.3-.5h.1c0 .3.3.3.5.6h.1c-.3-1.1.7.2.6.2s.4-.4.4-.2c0 0 .6.1.6.5h.1c0-.1.1-.1.1-.2a1.48 1.48 0 0 1-.1.7c.2-.1.2.1.2.1l.1-.1c0 .1 0 .2.1.1s0-.5 0-.6c.2-.4.4-.1.7-.1s.4.3.8.3c-.1.2.8.4 1 .5v.1c-1.4.1-.1 1.9.2 1h.1c-.1.3 0 .5 0 .9 0 0 .3.4.4.4a.27.27 0 0 1 .3.3l-.1-.1a2.54 2.54 0 0 0 .8 1c0 .1 0 .1-.1.1.1.2-.1.4.2.5v.1h-.1v.1c.4 0 .5.2.8.3v-.1c-.1-.1 0-.1 0-.3.2.2.6.2.7.7.3-.1.4-.3.7-.1-.2-.4-.5-.3-.6-.7 0 0 .5-.7-.1-.9v-.1c.3.1.5.2.6-.1h.1c.1.2.3 1 .6 1.1s.7-.2.7-.7h.1s.4.9.2.9c.1 0-.1.8-.1.9a4.71 4.71 0 0 0 1 1c0 .2-.3.7-.2.9-.1-.1.7.2.7.2.2.1.8.3 1 0s-.2-.8.2-1c-.2-.5-.9-1.8.2-1.8.2 0 1.8-.4 1.8-.2a.33.33 0 0 0 .6.1c.3.3 1.2-.8 1.6-.8a1.66 1.66 0 0 0 1.2-.5c.3-.3.6-.7.1-.8v-.1c1.4-.1-.4 1.5.4 1.5.3 0 .4.8.9.8.2 0 .2.2.3.2.3 0 0 .6.2.7s.7 0 .9.1c0 0 .2.2.3.2s.6.6.9.6.2.8 1 .5l.3-.3c.2-.1.6-.2.8 0h.1c0-1.3.8-1.7 1.7-1.9a.37.37 0 0 1 .1.3h.1l.5-.3a7.26 7.26 0 0 1 1.2-.5c.1 0 .1-.1.2-.1a4.87 4.87 0 0 1 1.1-.4h.1a5.64 5.64 0 0 1 1.2-.4h.1a4.05 4.05 0 0 1 .9-.5 6.47 6.47 0 0 1 1.3-.4 37.06 37.06 0 0 1 4.6-1.9.1.1 0 0 0 .1-.1 3.82 3.82 0 0 1 1.6-.6 15.71 15.71 0 0 1 2.3-.9 1.21 1.21 0 0 1 .5-.1 23.86 23.86 0 0 1 2.2-1.2c1.7-.7 3.4-1.2 5-1.9l.6-.3c.2-.1.3-.1.5-.2-.1 0-.1-.1.2-.2a14.27 14.27 0 0 1 2.2-.8 17.3 17.3 0 0 1 3.4-1.4 45.1 45.1 0 0 0 6.4-2.6c.2-.1.5-.2.7-.3s.4-.1.8-.2a10.41 10.41 0 0 1 1.6-.6 2.41 2.41 0 0 1 .8-.6h.1a.1.1 0 0 0 .1-.1c.1-.1.3-.1.5-.2 0-.2 0-.2.2-.2v-.1a3.07 3.07 0 0 1-1-1.5c0-.1.2.1.1-.1-.3 0-.1-.1-.1-.2s-.1-.7-.3-.7-.3-.9-.3-1c0-.5-1.5-1.2-.9-1.8.1-.1-.3-1.1-.3-1.3s.5-.5.1-.5-.2-.2-.4-.3c-.5-.5-1.2-.8-1.4-1.4v-.1c.2-.2-.1-.3-.2-.3h-.1c.1.5.2.7-.3.7a2.72 2.72 0 0 0-.9 0l-.1.5c-.2 0-.3 0-.3-.1-.4-.4.2-.4.2-.5.1-.3 0-.1-.1-.3a13.58 13.58 0 0 0-1.2-1.2.52.52 0 0 1-.1-.5c-.1 0-.3-.4-.4-.6-.3.2-.4-.2-.7-.3s-.7-.4-.8-.7h-.1c0 .8-1.3-.2-1.5-.3a7.05 7.05 0 0 0-.7-.9c-.3-.3 0-1-.5-.5-.2-.2-1.2-1.1-.6-1.2v-.1c-.4-.3-.7.6-.9-.1.3 0 .2-.2.1-.5-.7.4-.5-.4-.8-.9s-.6-.6-.8-.8c.1.1.1.2.2 0a6 6 0 0 1-.8-1.6s-.3-.7-.4-.7c-.4 0 .1-.6-.6-.2l-.1.3c-.3.1-.5-.1-.7-.1a.32.32 0 0 0-.3.3c0 .3-.5-.1-.5-.1-.4 0-.6-.8-.7-.9-.2-.3-.4-.3-.5-.7h-.1c0 .1-.8.6-.8.3l-1.1.1c-.3-.1-1.3-1.1-.8-1.5-.2-.2-.3-.1-.5 0l.2.2a1.48 1.48 0 0 0-.1.7c0 .3-.5.1-.5.3s-.3-.4-.4-.5-.8-.9-1-.9c-1 0-.5-3.6.4-2.8-.1-.2-.2-.2-.2-.5 0 .1.2-.2.2-.2 0-.3-.2-.4-.3-.7h.3c0 .1.1.5.2.5-.1 0 .3.8.3.6 0 .3.5 0 .7-.1v-.1a1.91 1.91 0 0 1-.8-.3v-.1c.4-.3.7-.4 1.1 0 0-.2-.1-.1-.1-.1.7-.6-.2-1-.3-1.5h-.1c-.2.2-.1.6-.3.8h-.1c0-.3-.2-.4-.5-.3 0 .2 0 .1-.1.3h-.5c-.1-.3-.4-.2-.3-.6 0 .1.4-.1.5-.1v-.1h-.3v-.4c.6.2.6-.4 1-.1s.6 0 .7-.3a2.19 2.19 0 0 0 .5.3c.2-.7 1.5-.6 1.1-.2a.74.74 0 0 1 .3 1s-.4 0-.5.2.4 0 .2.3a1.21 1.21 0 0 0-.3 1c.1.2.8.2 1 .3.3-.4-.6-4.4-.9-4.4 0 0-.2-1.2-.2-1.4a4.05 4.05 0 0 1 0-1.1l.3-.2c.3-.6.4-.9.9-1.2-.2-.3-.1-.5.2-.5v-.1c-.4-.1-.6-.5-.2-.9-.4 0-.5-.3-.6-.6l-.1.1c-.1-.2-.5.2-.9-.1v.1h-.1c.1-.2 0-.1.1-.2-.1-.2-.1-.4-.2-.5a.35.35 0 0 1 .1-.2c-.4-.3.3-2.7 1.4-2.5-.2-.3.2-1.4.5-1 .5-.1.7-1.2 1.4-1l-.1-.1c.4-.2.7.3.8.8h.1c0-.4.3-.3.5-.5s.2-.9.6-.9c0 0 .9-.4.9-.2s.3.1.5.2v-.1c.5.3.9-.5.3-.5V93h.1a1.07 1.07 0 0 1-.2-.6c.3 0 .6.2.6.4 0 .4.4-.1.6-.1.4 0 .3.1.7 0 .2-.1.1-.5.5-.2a2.35 2.35 0 0 0 .2-.8s.3-.3.1-.3c0 0-.2-.2-.2-.1a1.22 1.22 0 0 1 .6-1.4c.3-.1.3.4.8 0 .3-.2.3-1 .9-.9-.3-.3.2-.2 0-.6h.5c-.1-.2-.4-.4-.3-.6s.6-.2.7-.1a.37.37 0 0 0-.1.3c.4-.1 1-.1 1 .3 0-.1 1.3.1 1.5-.1.1 0 .6.1.6.3s.3 0 .3.2c.1.4-.2.1-.2.3 0 .5.5-.3.5-.3a3.71 3.71 0 0 0 .9-.2c0 .2.1.1.2.2v-.1h.1v.1c.6-.1.1-.7.3-1.1a.67.67 0 0 1 1 0c.4.4 0 1.3 1.1 1.1-.4-.5.3-.9.3-1.4s.7-.6.8-.9h.1c0 .2 0 .1-.1.1.5.3 1.2-.3 1.5 0 .1-.1.3-.6.4-.6s0-.3.1-.3.3.1.5 0 0 0 .2 0a1.42 1.42 0 0 0 1.2-.7s.6-.7.6-.5.5-.4.6-.4c.5-.1.5.3 1 0 .2-.2.4-.4.2-.8.2 0 .3.2.2.5h.1c0-.7.3-1.2-.2-1.6.1-.1.2.1.1-.1l-.7-.3c-.4 0-.1-.7-.1-.9 0-.6 1.1-.7.8-.5.3.2.9-.5.9-.6 0-.3 1.4 0 1.4-.2 0-.5.6-.2.6-.3 0 .2.7-.3.7-.3s.5-.2.5-.3c0-.3.7 0 .7-.1.6-.3 1.5-1.9 2-1.9l.4-.6c0-.1.9-.3.9-.3.2 0 .2-.3.3-.3s.6-.1.8-.2c0 .3.1.3.2.5.1-.3.6-.5.8-.8s.5-1.2.9-1.2.4-.7.4-.8c0 .1.5-.5.3-.5s.1-.4.2-.5c-.2-.3.4-.7.5-1.2l.1.1c-.2-.4-.1-.8.3-.9-.5 0-.1-.4-.1-.5 0-.6 0-.3.3-.6s.3-.2.8-.2.2.2.5.5l.3.4c.4 0 .2-.5.4-.5a13.92 13.92 0 0 1 .6-1.3c0-.3 1.3-.8 1.4-.9a6.13 6.13 0 0 1 .6-.4 2.54 2.54 0 0 0 .7-.2c.3-.3 1.1-.2 1.2-.3l.1.1c.1-.2.4-.8.7-.5h.1c-.1-.2 0-.3-.1-.5.6-.8 1.1-.2 1.7-.7.1.3 1.2.1 1.5-.1v.2h.1c0-.3.1-.2.3-.2-.1.2-.1.3.1.5h.1a11.73 11.73 0 0 1 .5-1.1c.1-.7-.2-.6.5-1.1-.6 0 0-.6 0-.8 0-.4 0-.2-.2-.6s-.7-1-.3-1.4c-.5 0-.5-2.8.1-3v-.1a.63.63 0 0 1-.6 0c.2 0 .1-.1.2-.2-.5-.4-.1-.5 0-.9-.6 0-.1-.3-.1-.5 0-.6-.3-1.2.3-1.3h-.3a.46.46 0 0 1 .5-.3c-.1-.2-.1-.2-.2-.2.2-.2.1-.7.1-.7.1-.3.3-.3.1-.6.5 0 .1-1.6.8-1.4-.1-.1 0-.2-.1-.3.3 0 .5-.3.3-.5.1-.1.2-.1 0-.2.1-.1.1-.1 0-.3.2 0 .5-.2.2-.5.5-.4-.7-.5-.7-.3 0-.2-.6-.9-.7-.7h-.1c.1-.4-.8-.5-1.1-.9-.1.1.1.2-.1.1 0-.2.1-.1.1-.1-.4-.3-.3-.6-.7-1-.1.1.1-1.1.1-1.3 0-.6-.5-1.2.1-1.4l-.1-.1c.5-.1.2-1.2.5-1.5.1-.1.2-.8.3-1a3.33 3.33 0 0 1 .3-.6c0-.1.7-.2.7-.6s.3-.5.3-.6a3.27 3.27 0 0 0 0-1.4v-.1h.1c.1.1 0 .1.2.1-.1-.1-.1-.1-.1-.2.2.2.9-.3 1-.5.4.2.3.4.7.7.2-.2-.1-.5.1-.8.1-.1.1-.1.1-.2s.3.2.3-.1c0-.1-.1-.5.1-.5 0 0 .6-1.7.1-1.8v-.1c.2-.1.2-.3.5-.5-.1-.1 0-.6.1-.7.3-.1.6.3.9.3-.1 0 .3.5.3.2 0-.1.2-.4.2-.5.1-.4 0-1 .6-.9-.5-.3-.5-.6-.1-.6s-.2-.7-.1-.9c.6.5.2-.7.5-.8s.5.7.3.8c.3-.1.3-.2.3-.5-.1-.1 0-.5.1-.8-.1.1.6-.5.2-.5-.1 0-.1-.4.2-.1.1.1.3.8.6.3.1-.2-.3-.8-.1-1.1.3-.5 1.1-.3 1.6 0 .2.1 0 .3.3.3.1 0 .3-.3.3-.5s-.5-.3-.7-.3v-.1c.2-.1.5-.4.9-.3-.2.3 0 .3 0 .5h.1c0-.5-.1-1.3.5-1.5-.2 0-.1-.1-.2 0h-.1c0-.3.1-.2.2-.1h.1c0-.4-.3-.5-.5-.7a.77.77 0 0 0 .2-.3h.1c.2.6.7-.3.8-.5.3-.4 1-.5.9-1l.1.1c.1-1 .5.3.6.5a1.07 1.07 0 0 0-.2.6c0 .3 0 .2.2.3-.3-.1.4-.4.3-.2.1-.3-.1-.5 0-.8s.5.1.5-.6a.49.49 0 0 0 .3.1c0-.3-.3-.4-.2-.6 0 0 .2-.2.2-.3s.1 0 .2.1c0-.1 0-.1.1-.1a.32.32 0 0 0 .3.3c0-.1.1-.2.1-.3-.2-.1-.2-.8-.5-.5-.5-.6.1-.6.5-.5V21c-.5-.2.2-.9-.3-1l.1-.1c.4.2 1 .4 1.1.8h.1a.46.46 0 0 1 .3-.5v-.1h-.2a.94.94 0 0 1 1-.5 1.44 1.44 0 0 0 .2.3c.3.3.2.1.6.3.1.1.7 0 .9.2a1.33 1.33 0 0 1 .3.5c0 .1.2.1.2.2.1.5-.3.3-.3.5-.3.9.3.1.4.1a4 4 0 0 0 1.9-.7c-.6 0-.6-.1-.7-.2zM.2 89.7H0c.2-.2.4-.1.5.2zm1 .7c-.1-.1-.2 0-.3-.1v.3H.8a.86.86 0 0 0-.3-.6h.1c.1.3.8.1.8.4s-.2 0-.2 0zm19.3 8.7c0-.2.1-.2 0-.5.2 0 .2.1.2.2s-.1.3-.2.3zm7.5-.8a.59.59 0 0 1-.5.2v-.1c.3-.1.2-.3.6-.3a.31.31 0 0 0-.1.2zm-2.8 54.3l-.1-.1c0 .1-.1.1-.1.2-.5-.4.1-.6.2-.2z"/><path d="M23.6 104.6v-.3h.1c.1 0 0 .2-.1.3zm-3.1 20.1c-.2 0-.1-.1-.2-.2.1.1.1.1.2.1v.1zm-7.4 9l.1.1c-.2.1-.1 0-.1-.1zm9.6 16.4v-.1c.1 0 .1.1.2.1zM1.4 90.6l-.1-.1c.1 0 .1 0 .1.1m25.8 8c-.2-.1-.3-.1-.5-.2v-.1a.46.46 0 0 1 .5.3M17.5 123c-.1-.1-.2.1-.1-.1s.1 0 .1.1m2.5 1h-.1l.1-.1v.1m1.8 1.8c-.2 0-.1 0 0-.1v.1m-3.7 24.3v-.1c.1 0 .2.1 0 .1m4.3 3.5c-.1-.1-.2.1-.1-.1s.1 0 .1.1m.2 1.7c-.1.1-.1.1-.2.1.1-.3.2-.1.2-.1m53.8-36.2l.2.1-.2-.1m39.5-52.3c-.1-.1-.1-.1-.1-.2.1.1.2.1.1.2m8.7-30c-.1-.1-.2.1-.1-.1.2 0 .1.1.1.1"/></svg>