<svg xmlns="http://www.w3.org/2000/svg" viewBox="0 0 84.88 155.8" width="84.88" height="155.8"><path d="M19.3 147.7h-.1c.1.1 0 .1.1.2q-.15.3-.3.3c.3-.5-.6-1-.1-1-.2-.2.2-.7-.3-.7v-.1c.1-.1.1-.1.2-.1v-.1c-.2 0-.5-.2-.6-.2-.4 0-.5.1-.8 0s-.4-.4-.7-.6c.1-.1.1-.1.1-.2l-.2-.2c-.2 0-.3.1-.3.2 0-.2-.1-.1-.2 0-.3-.7-.9 0-1.1-.2-.4.3-.7-.2-.9.2a.35.35 0 0 1-.2-.1c-.3.1-1.1.4-1.2.1a.31.31 0 0 1-.2.1c.1-.1 0-.1.1-.1-.3-.2-.4.2-.5.5h-.3c-.1-.2 0 0-.1 0-.5-.3-1.1.3-1.7.3a.91.91 0 0 0-.8.3c-.1 0-.5-.4-.7-.3s-.8.4-.8.6c-.7-.1-1.5.5-2.2.5-.2 0-1.3.8-1.5.3-.4.2-.1.8-.6.7-.3.2-.9.2-.9.8h.1c-.2.3-.7 1-.9.8h-.1c-.1.3-.4.5-.6.7a4.3 4.3 0 0 0-.9 1l-.1-.1a3.17 3.17 0 0 0 .7 2.6c.2.2.7.3.9.5s.2.4.4.5.2.3.3.3 0 .3.2.4c.3.3.4-.3.6.2.2-.2.1-.2 0-.3.2-.3.5-1 1-1s1.5.5 1.9-.1l.1.1c.2-.2.5.1.6.3h.1c.1-.4.5-.3.7-.2s0 .3.2.3c.4 0 .5-.1.7 0 .1-.1.2-.1.2 0 .2-.2 1.4-.7 1.4-.1h.1c0-.3.2-.4.3-.2.1-.1.1-.1.2-.1 0 .2.1.2.1.3a.47.47 0 0 1 .6-.1c.1-.5.7-.4.8-.9l.1.1c.2-.3.2-.1.5-.1.1 0 .6.2.9-.1-.1.1.8-.3.7-.3.3-.1.2 0 .5-.1s.5-.2.5-.4.9-.1 1-.1c.3 0 1.5-.7.7-.7v-.1c.1 0 .6-.1.6-.3a1.53 1.53 0 0 1 .5-.7c-.1-.1-.1-.1-.1-.2s.3-.3.4-.3.7-.1.4-.6c.2-.1.3-.5.3-.9.2.2.3.4.6.2-.6-.2-.3-1.2.2-.8-.1-.1-.1-.4-.2-.5-.4-.1-.5-.1-.4-.2zM84.5 71a.3.3 0 0 0-.2-.5c-.3 0-.7.5-.7.7s-.3.2-.3.4a.22.22 0 0 1-.2.2s-.3.6-.3.5c0 .2-.5.2-.6.3s-.2.5-.6.5-1-1-1.6-.8c.5-.3 0-.5 0-.8.1-.5.7-.4.7-.6s.3-.1.3-.2.1-.5.1-.6.2-.1.2-.4-.1-.1-.1-.2-.3-.2-.3-.3a1.58 1.58 0 0 1-.5-.6c0-.2.2-.6.1-.9l-.3-.4s-.7-.6-.2-.6c.3 0 0-.6.2-.7l-.1-.1a16.23 16.23 0 0 0-.1-2.1c0-.2.2-1 .2-1.2 0-.5.5-.7.5-1.2 0-.1.4-.4.6-.6a1.18 1.18 0 0 0 .1-.8v-1.5a9.22 9.22 0 0 1 .5-.8c-.4-.1-.4-1.2-.6-1.6A1.43 1.43 0 0 1 81 55a3.18 3.18 0 0 1 .2-1.4c.1-.2.6-1.3.8-.9h.1a.78.78 0 0 1 .3-.7c-.3-.4-.1-1.5-.1-1.9l-.5-1.6c-.1 0-.4-.6-.5-.7-.3-.3-.2-.6-.3-1.1s-.1-1.6-.1-2.2c0-.3-.1-.3-.1-.6a4.33 4.33 0 0 0 .1-.5 9.68 9.68 0 0 0-.2-1.2c.3 0 0-.4.1-.7 0 0 .6-.5.2-.5a2.13 2.13 0 0 1-1-.9 2 2 0 0 1-.1-.7c0-.2-.1-.3-.1-.5s-.7-.9-.7-1.1c0-.5-.1-1.7.3-1.7-.1-.3-.7-.8-.7-1 0-.5-.5-.5-.5-.6s-.4-.1-.1-.4c-.1-.1-.1-.2-.2-.3-.3.4-1.3-1.6-.9-2a2 2 0 0 1-1.2-.8c-.1-.2-.4-.5-.4-.7s.2-1-.4-1c-.1 0-.4-.5-.5-.6a2.92 2.92 0 0 1-.7-1.2s-.2-.3-.2-.2c0-.4.2-.4.2-.6 0-.4-.3-.7-.3-.8s-1-.9-1.3-1.1c-.7-.7.3-1-.1-1.7s-1-.9-1.5-1.6a7 7 0 0 1-.8-1c0-.5-2.3-1.8-1.8-2.3-.4-.1-.6-.7-.9-1-.6-.6 0-.4-.3-1 0 .1-.7-.5-.6-.5-.1 0-.2-.3-.3-.4s-.1-.1-.1-.2c0-.4-.1 0-.2-.2s-.1-.2-.2-.3a.66.66 0 0 1-.1-.6v.1c-.6-.1-.7-.9-.6-1.2h-.1c-.2.2-1.1-1-1.4-1.4.3-.3-.9-1.5-1.1-1.8a1.22 1.22 0 0 1-.3-.9c0-.1-.2-.3-.1-.3.3 0-.1-.4-.1-.5a2.81 2.81 0 0 0-.6-1.5c-.3-.4-1-1.5-.7-1.7-.1-.2-.1-.1 0-.2-.3-.4-.5-.5-.5-.8 0-.1-.3-.4-.4-.5s-.1-.6-.1-.6-2-2.6-1-2.4V.2c-.1-.1-.2-.1-.2-.2-3.1 1.3-6.2 2.7-9.5 3.9-.5.2-1 .2-1.5.4s-.5.1.2 0c-.5.2-.9.5-1.4.7-.2.1-.4.1-.6.2a11.76 11.76 0 0 1-2 .7c-.1 0-.1 0-.2.1a11.79 11.79 0 0 1-1.6.8c-2.9 1-5.6 2.3-8.4 3.5-3.3 1.3-6.5 2.7-9.7 4.1-2.1.9-5.8 1.8-7.5 3.4a3 3 0 0 1 1-.4c.5.6-.7.2-.7.5 0 0-.2.2-.2.3a3.55 3.55 0 0 0-.2 1c0 .3-.2.5-.1.7s.3 0 .3.4c0 .1 0 1.6-.2 1.6-.4 0 0 .9.2 1s.7.1.7.4c0-.2.7.6.5.4a1.28 1.28 0 0 0 .7.5.46.46 0 0 0-.5-.3v-.1c.3.1.7.3.7.7.3-.2 1.9 1.4 2 1.8-.6-.2-1.3-1.1-1.9-1.6-.3-.2-.7-.4-1-.6s-.5-.5-.9-.8-1.3-.2-1.1-1l.2-.1c.3 0 0-.6.2-.7.3-.3-.3-1-.3-1.3 0-1.1-.8.1-1 .2-.6.2-1.4-.5-1.7-.7a.55.55 0 0 0-.5.3c0-.1.2.4.2.5 0 .3-.1.2-.1.5v.6c0 .3.3.9 0 1 .5.3.2.5.2.8s.3.9.9.8c-.2.3.1.3.1.6 0-.1.3.6.3.6h.1c0-.1.1-.2.1-.3h.1a2.57 2.57 0 0 1 .2.5h.1c.1-.4 1 0 .7.3l-.1-.1c-.1 0-.1.2-.3.1v.1c.1 0 .1.1.2.1-.2 0-.2.1-.5.1v.1a1.07 1.07 0 0 1 .6.2l-.1.1c.6-.2 0 .8.1 1.1.3-.1.3-.1.5 0v.1c-.3 0-.5.2-.3.5-.2-.1-.4-.1-.6-.2v.1c-.3-.2-1.2.1-.8.7h-.2v.1s-.1 1 .5.3l.1.1c-.1 0-.1 0-.2.1.3.2.4.3.7.1a3.09 3.09 0 0 0 .7 1.4c.4.3.5-.5.9-.2-.5.2.2.9.7.1h.1c.8 1-1.6 1.2-1 1.9h.1c.1-.1.1-.1.1-.2l.1.1c.2-.2.9 0 1.1-.2-.2.3 0 .9-.2.9s.2.2.2.2.3.1.6.1.5.2.9 0c.1.6.6.7.9 1v.1a.77.77 0 0 0-.3.2c-.2-.3-.9-.5-.8-.9h-.1a.63.63 0 0 0 0 .6c-.6-.1-.1.4-.4.6s-.4.1-.3.6h-.1c-.2-.5-.2-.8-.9-.8s-.9-.4-1.5-.2v.1c.7.2-.3.3-.3.4s.4.6.3.6-.2.5.1.5.3-.4.6-.5c-.1.3-.1.7-.5.7-.2 0-.5 0-.6.2h.2a2.19 2.19 0 0 1-.3.5c.1.2.2.5-.1.6v.1c.5 0 .7-.6 1 0-.3.1-.5.3-.3.7 0 .1.3.5.3.3s.7-.2.7-.5.6-.6.8-.7.8-.2.9-.7h.1c-.2.3.2.9-.3.9v.1c.3-.1.5.1.7.2-.1.4-.4.6-.8.2v.2c-.7-.6-.2.9-.2.9 0 .5-.3.6 0 1.1a.75.75 0 0 0-.7.7h.1c.2-.2.5 0 .7 0 .4.1.6.9 1.1.5 0 .3.3.3.6.2v.1c-.5 0-1.4-.2-1.5.3.4-.2 1 0 1 .4 0 .1.3.1.3.3a.84.84 0 0 0 .2.7c.4.5 1.1.3 1.2 1.2.4-.3.8-.4 1.1-.6.5-.2.4.1.6-.5a7.75 7.75 0 0 1-.1-.9h.1c.1.4.2 1.1.3 1.4-.3.2-.7.7-1.1.7-.1 0-1.4.7-1.4.7s-.2-.2-.2 0l-.1-.1c-.1.1-.5.3-.5.5a2.39 2.39 0 0 1-.3.9c.3 0 .2.1.5.1v.1c-.8-.2-.3.5-.2.7.3.9-.1.6-.6 1.1.3-.8.7-.5.2-1.2-.1-.1 0-.3-.1-.5s-.5-.1-.5-.2V47s.2-.1.2-.2-.1-.1-.1-.3.2-.2.2-.6c0-.2-.3-.4-.3-.9 0-.7-.2-.2-.4-.2.2 0-.8 1.2-.7.3l.1.1a.9.9 0 0 1 .1-.5c.1.1.2.2.3.1-.1-.2 0-.4 0-.5s.1-.2.1-.1a.2.2 0 0 0-.2-.2c-.1-.4.1-1.3-.3-.9-.1-.2-.3-.2-.5-.2h-.1c.1.5-.4.5-.6.5-.4-.1-.2-.1-.2-.3a4.23 4.23 0 0 0-.5-.7c-.1 0-.5.4-.6.6a.6.6 0 0 1 .3.6c-.2-.2-.7 0-.5.2l-.1.1c-.1-.3-.3-.2-.7-.1.1-.6.1-.6-.5-.9-.2-.1-1.1-.6-.7-1a1.33 1.33 0 0 0-.5-.6c-.2-.1-.7 0-.7-.3s-.4-.4-.5-.5c-1-.2.2.5.2.5.3.3 0 .9-.1 1.1v.1c.5-.1.3.6.9.6v.1a.22.22 0 0 1-.3-.1c-.4.2-.1-.5-.5-.5a2.77 2.77 0 0 1-.9-.5c.4.4.4 1.2 1.1 1-.1 0-.1.2-.3.1v.1c.2.1.3.2.5.3-.2.2.3 1 .6 1-.1 0-.1.1-.2.1a1.13 1.13 0 0 1 .3 1.1h-.1c0-.3-.1-.4-.1-.6l-.1.1c.1-.4.2-.5-.2-.6.2-.3-.2-.6-.5-.9.1-.1 0-.3-.1-.6a1.44 1.44 0 0 1-.3.2c-.2.3.1.6-.1 1l.1.1c-.5-.1-.7.7-.7.9.1.4.4.4.5.7-.2-.1-.4-.1-.5-.2-.1.3 0 .5-.1.7-.3.6-.1-.3-.2-.3.2-.3 0-.5-.3-.5v-.1c.2.1.3 0 .5.1-.1-.3-.1-1.2.3-1.2.2 0 .1-.6.1-.7-.2-.2-.4-.2-.6-.3.1-.2.1-.3.2-.3q-.15-.3-.3-.3c0 .3-.1.2-.2.3-.2-.3.8-1.2-.1-1.2-.3 0-.5-.1-.7-.1s.1.6-.3.1c-.2-.2-.5.1-.1.2v.1h-.6a.45.45 0 0 0 0-.5h-.1c.1.3-.3.6-.5.7v.1c.4-.1.6.2.8 0 .1.1.1.1.2.1v.1h-.1v.1h.2v.1c-.2.2-.1 0-.2.2H8c-.1-.4-.6 0-.8-.3h-.1c-.1.4.5.4.7.7-.2 0-.2.2-.1.3.2-.2.6-.3.6.1 0 .2.7.2.7-.1h.1c.2.2.2.6-.2.6.1.4.3.4.6.7-.3.1-.5 0-.7.1s0 .3-.6.3c-.1 0-.3.1-.3.2-.1.3.7 0 .8.5-.3-.1-.9-.1-.8.3h-.1v-.1h-.1c0 .3.2.4.2.7h-.1c-.2-.2-.2-.4-.5-.6.1-.1 0-.2.2-.2-.1-.4-.6-.2-.8 0a1.06 1.06 0 0 1 .1.8c.3 0 .2.1.3.1-.2.3 0 .3.1.6l.1-.1c0 .2.1.3.1.5-.2-.1-.5-.3-.5-.6s-.7-.1-.1.2v.1a.46.46 0 0 1-.5-.3h-.1v.3c-.1-.1-.1-.1-.2-.1 0 .2-.1.2-.1.3h-.1c.1-.6-.2-.8-.3-.2h-.1c.2-.7 1-.4 1.2-1-.2 0-.3-.1-.5-.1-.5 0 .1-.5.1-.5.1-.2 0-.6.2-.8-.1.1.9-.2.3-.2-.1 0-.2-.4-.2-.5l-.3-.3c.1-.2.4-.5 0-.7.2-.2.2-.4.3-.5-.2 0 0-.2-.2 0h-.1a.37.37 0 0 1-.1-.3c.3 0 .4-.1.2-.3h-.1c-.1.3-.3.2-.3.6 0 .2.1.3.1.4a.35.35 0 0 1-.1.2c.4.3-.5 1.4-.3 1.9h-.1c0-.7-.8.4-.8.1s-.3-.1-.5-.1c.1-.4.5-.6.5-.7s-.1-.2.1-.5a5.76 5.76 0 0 1-1 .2c.2.1-.1.5-.5.3v.1c.3.1.2.5.2.9h.1c0-.3.2-.4.5-.2v.3c-.2-.2-.1 0-.2-.2h-.1a.66.66 0 0 1-.6.7v.1c.3.1.4.4.8.2v.1h-.1v.1h.2v.1c-.3 0-.4-.3-.6-.1-.1-.1-.1-.1-.2-.1.1.2.1.4.3.5l-.1.1c.2.2.1.3.1.6-.3-.4-.9-1.5-.6-1.8-.2-.1-.1 0-.2-.2a.37.37 0 0 0-.3.1v.3c.5.2-.1.4.1.7-.6.1.2.4-.3.5.1.2.1.3-.2.3 0 .1 0 .1.1.2-.2.1-.9.1-.3.3 0 .1.3.8.2.8s-.2.8-.3.9h.1c.3-.5.7-.4.7-1.2h-.1v.2h-.1a.61.61 0 0 0-.1-.6c.3-.7.5 0 .5.5 0-.4.6-.4.8-.2-.1.1-.1.2-.2.2v.1c.3.1.4.3.7.1a1.07 1.07 0 0 0-.2.6H4c.1-.1.3-.2.3 0 .2.6-.7.4-.7.4s-.3-.1-.3-.2-.7.3-.8.3 0 .1.1.2c-.2.1-.1.2.1.3-.3.3.4.2.5.4l.1-.1c.3.4.5-.2.7-.4s.4.2.5-.3h.1l.1.1c-.3-.8.3-.3.6-.8h.1c0 .2.1.8-.2.8-.1 0 0 .7-.1.8.2.1.7-.1.7.3 0 .1.5 1.8-.2 1.1a2.08 2.08 0 0 1 0 .8c.1.3.6.6.5 0H6v.2h-.2c0-.4.3-.3.5-.1l-.1.1c.2 0 .2 0 .3-.1-.2.3-.1.5-.1.9 0 .2.2.3.2.5a1.73 1.73 0 0 1-.1 1c.4.2.2 1.1 0 1.4.2 0 .7-.7.7-.3 0 .1-.4.5-.5.6-.4 1 .8.6.5.2l.1-.1h.1c0 .2.4 1-.2.6-.2.5.2.8.7.9a.61.61 0 0 1-.1-.6h.1v.2c.2-.1.3-.1.5-.2-.2.4.1.4.1.7.2.1.3 0 .2.3.4-.1.1-.4.1-.6s.6-.2.1-.6c-.1.1-.1.1-.1.2h-.1c0-.3 0-.5.2-.6v-.1c-.2.1-.2 0-.3.1.3-.3-.3-.3 0-.6h-.5c.1-.1.1-.1.2-.1-.2-.2-.1 0-.2 0-.2-.3.2-.5.3-.3.1-.2.2-.2.1-.5h-.1v.1h-.1c.1-.3 0-.9-.5-.8V56a3.65 3.65 0 0 0-.3-1.5c0 .1-.1.1-.1.2.1-.3-.1-.5-.5-.5v-.1c.3 0 .1-.1.1-.2s.2 0 .1-.1c.3.2.2.5.6.5 0-.2-.1-.1-.1-.1 0-.2.2-.2.1-.5h.1v.1h.1a.45.45 0 0 0 0-.5.22.22 0 0 0-.2.2c-.1-.5-.9-.3-1.1-.1-.4-.6.5-.3.5-.4s.4 0 .2-.3-.4.1-.5.1c-.3-.2-.1-.4-.6-.6a1.16 1.16 0 0 0 .8-.6c-.3-.1-.4-.3-.8-.5h.2V51c-.2-.1-.3-.1-.5-.2.2-.3-.1-.6-.2-.9h.1a.48.48 0 0 0 .8.2c.2-.2 0-.6.1-.8s.5-.1.7-.2a1.85 1.85 0 0 1 .2.7c0 .2-.5.2 0 .5.2-.3.2.2.2.5s-.6.5.1.5c-.2.3-.6.6-.3.8l-.2.2c0 .1 0 .5.2.3h.1v.1c-.3 0-.1.1-.1.2s.1-.3.1 0h.1a1.08 1.08 0 0 0-.1-.6c.2.1.2 0 .5 0 0-.1-.1-.2-.1-.3.2.1.2 0 .3.2.1-.4.4-.6.6-.9a.35.35 0 0 0-.1-.2 2.65 2.65 0 0 0 .7-1.4c.2.1.3.2.3-.1h.1c.3.2.1.3.1.7 0 .2.2.5-.1.6v.1c.5 0 1.3.1.9.7-.2-.2-.5.1-.7.3.2.3.6.4.8.8 0 .1.1.4.1.5 0 .6-.1.1-.3.2a4.4 4.4 0 0 1-1 .2v-.1c-.2.3.1.2.1.3a4.8 4.8 0 0 1 0 1.2 1.21 1.21 0 0 0 .7.7c.1-.4.5-.1.7 0v.1c-.7-.3-1 .3-1 .9 0 .4.2 2 .7 1.5a7.64 7.64 0 0 1 .9-.9s.6-.5.6-.1a1.85 1.85 0 0 1-.2.7l-.1-.1s-.5 0-.5.3a3.7 3.7 0 0 1-1.1.5l.1.1c-.1.1-.2.1-.2.3.2 0 .6-.1.6.1s-.4 0-.6.1c-.3.4.2.4.5.5v.1h-.1v.1a5.5 5.5 0 0 1 .9.7c.3.3.5.1.1.5a1.06 1.06 0 0 1-.5.2c-.2.1-.3.2-.5.3s0-.2-.2-.1a3.33 3.33 0 0 0 .3.6s.5.7.5.2c0 0 .2-.3.3-.2.3.2 0 .7 0 .9v.3c0 .1-.2.1-.2.2a8.11 8.11 0 0 1-.3 1.1v.1c.3 0 .2.4.5.6.1.1.5.2.6-.1h.1a6.89 6.89 0 0 0 .3.8c-.3 0-.5-.2-.6 0-.2-.1-.1-.1 0-.2-.2.1-.7.2-.6.7h-.1a2.57 2.57 0 0 1-.2-.5c-.1.4-.3.5-.7.6 0-.1 0-.2-.1-.1a1.06 1.06 0 0 1-.1.8c.1 0 .1.1.2.1a1.45 1.45 0 0 1 .2-.7c.2.2.2 0 .2 0a1.69 1.69 0 0 0 .5.2c.1 0 .4.5.3.5.4.1.4-.5.6 0 0 0 .7.6.6.6.2 0-.1.5.2.5.1 0 .5-.3.4.2.1 0 .1 0 .1-.1.1.1.1.1.2.1v.1a1.27 1.27 0 0 1-.6.1v.1c.4 0 .2.2.2.6 0 .2.3 0 .3.3 0 .1.5.4.6.5v.1h-.2v.1c.2.2-.1.4.1.7.2-.1 1.1-.2 1.1.1 0 .6.7-.5.6-.4.1-.2 1.3-1 1.6-.6h.2c.1-.2.2-.5.5-.6a5.39 5.39 0 0 1 1-.3c.2 0 .2-2 .7-2.2-.2.8-.3 2.2-1 2.7a7.26 7.26 0 0 1-.9.5c-.5 0-.6.2-1.2.2-.4 0-.3.7-.5 1s-.9 0-1.2.1-.9.4-1.2.5-.2 0-.3.1c.1 0-.7.3-.3.3.1 0 .2.2.3.2s-.1.1-.1.2c-.1-.1-.2 0-.5-.1v.1c.2.1-.1.5-.1.8l.1.8c.2.2.5-.1.5-.1l.3-.2c0-.2.3.1.4.1.4 0 1 .2 1.4.2.1 0 1.4-.4 1.4.2 0 .4.4-.1.2-.1s.1-.4.1-.4c.2-.2.8-.1 1.1-.3 0 .6-.9.1-.9.7 0 .2.6 1.1-.4.8-.5-.6-1.9-.1-2.3.4.4 0 1.9 1.3 2.2.8h.1a2.2 2.2 0 0 1 .1.8 2.79 2.79 0 0 0-.1 1c-.1-.2-.2-.3-.3-.5.1 0 .2 0 .1-.1a3.28 3.28 0 0 1-.8-.6c-.3.5-1 .5-1.6.7.4.4.2 1 .1 1.5h-.1c-.1-.2-.3-.2-.5-.5 0 0-.5-.9-.5-.5 0 .1-.7.3-.7.5 0 .4-.4.5-.6.7s-.2.3-.5.5-.9-.1-.9.3-1.5 1.2-1.7 1.2c0 .2.1.2.2.3s-.3.1 0 .1v.1c-.6.1-.2.7.3.7-.1 0 .4.5.5.6h.7c-.1-.1 0-.2-.1-.5.1.2.8.7.8.1h.1c.2.1.8-.2.9.2h.1c0-.2.1-.1.1-.3h.9c.8-.2.1-.2.2.5a.76.76 0 0 1 .5-.2c-.6.8.1.9 0 1.9-.2-.2-.4-.9-.7-.9v-.1h.1v-.1c-.3 0-.4-.2-.7-.2s-.2.3-.1.5c-.4 0-.7.8-.6 1h-.1c.1-.2-.1-.2-.1-.2l.1-.1c-.2-.8-1.1-.1-1.2.2a3.17 3.17 0 0 0-.6-.5c-.2.1-.4.5-.7.5s-.3.5-.6.6c0 .2.1.1.1.1s-.2.1-.1.3h.1c0-.1.1-.1.1-.2a1 1 0 0 1-.5.6c-.2 0-.3.6-.3.8-.1 0-.1 0-.2-.1 0 .3 0 .4-.2.6.4-.1 1.1.2 1.4 0 0 .8-1.8-.3-1.4.5-.1-.1-.2-.1-.3-.2v.1H8v.1c-.5.2-.3 1.4.1 1.5 0-.2.1-.3.1-.5a1 1 0 0 1 .3.1h.1c0-.3.2-.2.3-.1 0-.3.1-.2.2-.3 0 .1 0 .1.1.1l-.1.1c.1 0 .3 0 .3-.1.1.1.1.2.1.5-.4-.4-.4.1-.8.2-.2-.3-.4-.3-.3 0-.2 0-.4-.1-.3.2h.1c.1-.1.4 0 .5.1a.85.85 0 0 1-.3.5h-.1c.2-.2 0-.1.2-.2v-.1c-.6-.1-.8-.9-1.2-.2a2.28 2.28 0 0 0-.3 1.1c0 .4.1.6.1 1a3.33 3.33 0 0 1-.6.3c-.2.1-.4.4-.6.6a1.07 1.07 0 0 1 .6.2v.1c-.4.1-1.3.5-1.2-.2a3.21 3.21 0 0 0-.3.5c-.3 0 .2.3.2.3s.6.7.6.4a8.58 8.58 0 0 1 1.7-.3v.1c-.3 0-.1.1-.1.2-.3.1-.3.5-.8.3a1 1 0 0 0 .1.3c.1 0 .2 0 .2-.1 0 .1-.2.1-.1.3h-.1v-.2h-.1a1.07 1.07 0 0 0-.2.6 2.07 2.07 0 0 1 .6-.2l.1.1c-.2.1-.1.2-.3.2 0 .1.1.1.1.2v-.1c.1.1.1.1.2.1s-.2.3.2.2v.1h-.2v.1c.2.1.3.1.5.2 0-.2.1-.1.1-.3h.1c.1.3.1.4.3.5v.1h-.2v.1c.2 0 .1.1.3.1v.1c-.2 0-.1.1-.3.1 0 .1 0 .1.1.2.2-.2 1 .1 1.4-.1-.1.3-.3.5-.1.7-.1-.1-.2-.1-.3-.3 0 .3-.1.2-.3.3-.1-.1-.1-.1-.2 0v.1c.7.1.2.8-.1.8-.7 0-.2.6-.3.9-.3 0-.4-.3-.6-.3s-.3-.6-.3.1c0 .2 0 .3-.1.4s-.9.5-1.1.6v.1a.85.85 0 0 1 .6.2v.1c-.5.1-.7.8-1 .1-.1.1-.1.1-.2.1.1-.1 0-.2.1-.3-.7.4-.2.7-.1 1.2.2-.1.3-.3.6-.3 0 .3-.5.6-.8.7 0 .2 0 .1.1.1l-.1.1a.85.85 0 0 1 .7 0c-.1-.1-.1.1.1.1v.1h-.1v.1c.3 0 .3-.1.6-.1 0-.4-.4-.4-.5-.8h.1c.1.3.4.1.7.5l.2-.2v-.1h-.2a.76.76 0 0 0 .2-.5c0-.1-.8-.4-.1-.5a.85.85 0 0 1 0-.7H7c.1.2 0 .8.3.9-.3-.3.2-1 .5-1.2a1.55 1.55 0 0 1 .2.8l.2-.2c0 .3.1.2.3.4.4.4-.6.2-.6.2l-.3.3c-.1.1-.3.1-.3.2 0 .3-.1.6.3.5-.8.2.3.7-.2 1.1 0-.1 0-.1-.1-.1.1.3 0 .3-.2.5.1 0 .2.1.1.2.3-.3.5-.4.6-.8h.1a.9.9 0 0 0-.1.5h.1c0-.2.1-.3.1-.5h.1c-.2.4.2.7-.5.8l-.1-.1a1.44 1.44 0 0 0-.2.3v.1c.2.1.4.3.2.6.1 0 .1 0 .2.1v.1c-.1-.1-.1 0-.2-.1h-.1c0 .4-.8 1-.9 1.2-.4 1.3 1.1.3 1.6.3-.2-.3-.3-.5 0-.7.1.6.6.1 1 .1s.3 0 .6-.3h.1c-.1.2 0 .3-.2.3v.1h.1v.1c-.2 0-.2.1-.1.3-.1 0-.2 0-.1.1a.46.46 0 0 1 .5.3c0-.2 0-.2.1-.3h.1v.2h-.4c0-.2.1-.1.1-.2-.2-.3.1-.4.3-.5a1 1 0 0 1-.2-.7c.4-.2 0-.2.1-.6 0-.1.3-.4.3-.6h-.2l.1-.1c-.2-.1-.3-1.1-.5-1.3s.3-.8.5-.2c-.1-.1-.3-.3-.5-.1s.3.7.4.7.5.2.7.1c0 0 .6-.9.6-.3 0 .2-.1.6-.1.9 0 .6-.1.3-.6.6v.1c.3.1.3.3.7.3v.1c-.2 0-.2.1-.3.1-.3-.2-.1.2 0 .5.1 0 .1-.1.2-.1s.1.2.2.2-.1-.1-.1-.2c.1.1.2 0 .2.2.3-.5.4-.3.9-.3a7 7 0 0 1 1.2.3v.1c-.3 0-.3-.1-.5-.2l-.3.2h-.6c-.2 0-.2.2 0 .2s.4.3.3.6c-.4-.3-.7 0-1.1-.2-.1-.1-.4-.7-.6-.7s-.5.1-.5.2-.3.1-.5.2a.62.62 0 0 0-.1.8c-.1.1-.1.1-.2.1.1.1.2.2.2.3s-.1.4-.1.3-.4-.4-.6-.4c.1.1.1.3.2.5-.2 0-.3-.1-.3-.2v.2H9a1.62 1.62 0 0 0-.5-.9c-.2.3-.3.3-.5.6-.1-.2-.2-.2-.2-.3h-.1a4.17 4.17 0 0 1 .2.6c-.6 0-.1-.7-.7-.7v.1c.1.1.1.2 0 .5-.2-.2-.1-.8-.8-.6-.3.1-.2.9-.5.6-.2.2.2.7.5.7.1 0 .5-.4.6-.6 0 .3.2.2.3.1 0 .1-.1.2-.1.3a.85.85 0 0 1 .6-.2c0 .1.1.1.1.2s-.2-.1-.1.1c.3.2.2-.1.4-.1a4.1 4.1 0 0 1 1.1.1l-.1.1a5.5 5.5 0 0 1 .7.9c.2.2.2.6.6.3v.2h.3l.1-.1c-.2.4-.2.5 0 .8 0 0 .5.3.4.3.2 0 .1.2.5.2.2 0 .5 0 .5.2s-.4 0-.5 0c-.6 0-.7-.2-1.2-.3v.1h-.1c.3-.4-.4-.4-.7-.5v.1c0 .1.1.4.5.3v.1c-.3.4-.4 0-.7-.1-.5-.2-1.4-.1-1.5-.7-.1 0-.1.1-.2.1-.2-.2-.4-.6.1-.6v-.1h-.2c.1-.3.3-.4.6-.5q-.15-.3-.3-.3c-.1.1-.1.1-.1.2-.2-.2-.4.1-.6.3h-.1c.1-.4-.4-1.2-.7-.8-.1 0-.1-.1-.2-.1v.1a2.19 2.19 0 0 1 .5.3c.1 0 .1 1-.3.8v.2h-.1c-.1-.2 0-.3.1-.5-.1 0-.2 0-.2-.1-.2.3.1.8.2 1.1q.3-.15.3-.3c0 .1 0 .1.1.1 0-.4.1-.5.2-.1h.1l.1-.1a4.17 4.17 0 0 0-.2.6c.4-.1.6.3.6.7h.1c-.1-.2.1-.3.1-.5.1.2 0 .6.1.8h.3c.2-.2.2-.2.5-.2l-.1.1c.3.3-.4.6-.8.7.1.1.1.1.1.2-.4-.3-1.4-1-1.5-.8-.2-.4-.3-.1-.6-.3 0 0-.7-.7-.3-.7.1 0-.2-.5-.2-.5-.5 0-.2-.5-.3-.6s.8-1.1.3-1.1c-.2 0-.6-1-.5-1.1a.37.37 0 0 1-.3.1c0-.1-.1-.4-.1-.5-.6-.1-.3.1-.5.5-.1.2-.3.5-.1.8-.3.1-.3.2-.3.5h-.1v-.1h-.1a.61.61 0 0 0 .1.6v.1c-.5.1 0 1 0 1.2-.1 0 .1-.2-.1-.1 0 .2.2.4.3.6l.1-.1a.1.1 0 0 0 .1.1v-.2a.71.71 0 0 0 .6.3 1.09 1.09 0 0 0 .1.5.35.35 0 0 1-.2-.1c-.1.1.1.1-.1.1-.4-1.2-.5 1.2-.1.2h.1c-.2.3.1.4-.1.7.3-.1.2-.2.2-.3.1.1.1.1.2.1-.4.3-.2.7.2.6-.1.1-.1.1-.1.2.2 0 .4-.1.2-.2.2-.2 0-.8.2-.8a1.69 1.69 0 0 1 .6.3c.1.1-.1.4 0 .8h.1c0-.3.1 0 .2 0 .4-.5.3.7.2.7.2 0 .3.1.5-.1s.3-.5.5-.5.3.1.2.3.2 0 .1.2h.2c.1-.3.9.6.6-.1-.1 0 .3-1.3.5-.6.1-.1.2-.2.3-.1l-.1.1c.2 0 1.3.1.8-.2.1-.2.2-.5.5-.5s0 .3 0 .3c0 .2-.5.4-.5.7.2-.1.4-.1.6-.2-.1.4-.8.3-.8.2-.8.3.3.8.8.7-.1.3-.3.3-.5.1l-.1.1c-.1-.1-.5-.1-.7-.2v.2l-.1-.1a2.76 2.76 0 0 0-.9.7h.2c-.1.1-.1.2-.2.2v.1c.1 0 .1.1.2.1-.4 0-.2.6 0 .3.3.2.4.1.5-.2.2.3-.1.3-.1.7h-.1c-.1-.1-.1-.1-.1-.2-.1.2 0 .3.2.5-.4 0-.4-.2-.7 0 .3.1.4.5.6.7h.1c0-.3.2-.3.5-.1.2-.6.3.3.5.5a.49.49 0 0 1-.7.1c-.2.4.1.5.2.8l-.1-.1v.1c-.2-.2-.3-.2-.6-.1v.3h.2c-.1.3 0 .3-.1.6h-.1c-.2-.2-.1-.1-.3-.2v.1c.2.1.6.6.8 0 .1 0 .1.1.2.1.1-.9.6.5.5.5.3 0-.2.7-.3.8h.2c-.6.7.3.6.6.3.1-.1.3-.5.4-.5h.7c.1 0 0 .3.5.2v-.1c-.3-.2 0-.7-.1-.9v-.1c.8.1.2-.8.4-.8-.3 0 .2-.5-.1-.7a.19.19 0 0 1 .3 0c.1-.1.1-.2.2-.3.1.1.1.1.2.1 0-.4.5-.6.7-.1h.1c0-.2-.1-.2-.1-.3.2 0 .3-.1.5-.2-.2 0-.3-.2-.3-.5.5.4.7.2 1.4.2v-.1c-.3-.1-.7-.3-.5-.6a.64.64 0 0 0-.6 0c0-.2 0-.2.1-.3s.6.2.8-.1c.2.1.1.1 0 .2.2.2.5.2.6-.1-.4-.1-.1-.6.2-.3.1-.1.1-.2.2-.3-.2-.2-.3-.1-.5 0-.2-.2-.6-.5-.6-.9h.1c.1.1.3.2.3.3a.37.37 0 0 0 .1-.3c.2.1.2.2.5.1v1.4c-.2-.2.2-.6-.1-.8.1-.1.1-.1.1-.2-.3.3-.4-.2-.4-.2.5 0 .6-1.1.4-1.4.4-.1.6 1.1.5 1.2s.2.6.1.9l.1-.1c.2.3-.1.2-.1.4a3.33 3.33 0 0 0 .1 1.4s-.5 1.1.2.7c-.1.3 0 .2-.1.3v.1c.2 0 0 0 .1.1h.1v-.1h.1c0 .5.5.1.8.2.1 0 .3.4.3.5h.1c.2-.1.3.1.3.3h.1c0-.4 0-.8-.3-.9v-.1h.5c0-.2 0-.1-.1-.1s.3-.6.3-.2.3.1.6.1-.2.7.5.6c-.1 0 .3-.4.2-.3v-.1c-.3 0-.3-.3-.3-.5.4-.7.4.7.8 0a1.44 1.44 0 0 0 .3.2c-.1-.1-.1-.4-.1-.5l-.2-.2c-.1 0 0-.4.1-.6h.1v.1h.1c-.2-.2-.3-.3-.1-.6-.5.4-.3-.9.3-.3 0-.5.2-1 .3-.5h.1v-.5h-.1c-.1.2-.4-.1-.6-.1v-.1c.3 0 .6-.6.5-.8h.4c-.2-.2-.5-.3-.3-.5v-.1c-.2.1-.1 0-.2.1a6.37 6.37 0 0 1-.7-.2v-.1c.5.2.9-.1 1.1.1l.1.5c.4.1.2-.3.1-.3.1 0 .5-.1.5-.2s.4-.2.6-.3l.2-.2v-.3h.3c.1-.1.2-.1.2-.2l.1.1c.3-.3.6-.9 1-1.1.1.2 1.4.8 1.4.3a6.07 6.07 0 0 1 .7-1c-.4-.5.6-1.1.7-1.4h.1a4.2 4.2 0 0 0 .3 1.4h.1c0-.2.1-.1.1-.3h.1v.1h.1c0-.3.1-.2.2-.5.2.3.1.4-.2.5v.1a.37.37 0 0 0 .3.1c.1-.1.3-.9.8-.6.2.1 0 1.4.3 1h.1a3.33 3.33 0 0 1-.6 1s0 1-.5.4c-.1.1-.2.1-.2.2h-.1c-.1-.6 0-1.1-.1-1.7h-.1c-.1.1-.1.1-.1.2h-.1v-.2a3 3 0 0 1-.8.8 1.44 1.44 0 0 1 .2.3c-.9-.1-.1 1.1.1 1.2s-.3 1.3-.6 1.5c.1.1.2-.1.1.1-.1-.1-.2-.1-.2-.2-.2.2-.9.7-1 .2-.1-.3.2-.2.3-.5 0-.1 0-.6.2-.7s.2-.4.1-.4c.3 0-.4-.6-.4.1 0 .1-.5.4-.3.4s-.1.5-.2.6c.3.6-.4.1-.4.1l-.6.9c0 .2-.3.3-.2.7a1 1 0 0 0 .8.7c.1-.1.1-.1.1-.2h.1c0 .3.2.1.2.1s0 .2.1.2c.2-.3-.1-.5-.1-.6.1-.4.3-.2.6-.5.3.4.3-.5.6-.1s0 .7.3 1c0-.1.1-.2.2-.1-.1.1-.1.2-.2.2.2.1.3.1.3.2h.1c.1-.5.6.3.9.3v.1c0 .2-.1 0 0 .2-.3-.3-.5.5.2.5.2 0 .4 1.2.6.8l.1.1h-.1v.1a1.27 1.27 0 0 0 .6-.1c0-.2-.1-.1-.1-.1.2-.2-.7-.8-.3-.8s.5-.4.9-.1c-.2-.3.1-.4.1-.3s.2.5.3.1c.1.2.1.1.2 0 .1.1-.1.2.1.1a1.07 1.07 0 0 0-.2-.6c.3-.2.4.1.7-.1.1-.1-.3-.3.1-.3 0 0 .2-.3.3-.3s.4-.6.3-.6-.9-.3-1-.3a2.34 2.34 0 0 1-1 .5v-.1c.4-.2-.6-.9-.6-1.2.1 0 .1.1.2.1s.4-.3.5-.1h.1c-.1-.7.8-.4 1-.1.2-.2.3.4.3.7l-.1-.1a.32.32 0 0 1-.3.3v.1c.4-.2.3.1.7-.1-.2-.2-.1-.5 0-.7h.1c.1.3.3.9.5.7l.1.1c.1-.4-.3-.4-.2-.6s.2-.1.2-.3h.1a1.85 1.85 0 0 0 .2.7h.1v-.2c.1 0 .1.1.2.1.1-.3.6-.5.6-.9s-.4-.4-.2-.9a1.08 1.08 0 0 1-.6-.1H33v.2h-.1a3.39 3.39 0 0 1-.6-.6c.2 0 .3.1.5.2v-.2h.1c0 .4.4 0 .7.2v-.2a.27.27 0 0 1-.3-.3l-.1.1c-.1-.2-.1-.4.1-.5v-.1c-.2 0-.1 0-.2.1-.1-.1-.1-.1-.2-.1a.45.45 0 0 1 0 .5l-.1-.1c0 .1 0 .1-.1.1s.1-.2.1-.3h-.1c0 .1 0 .1-.1.2 0-.1 0-.3.1-.3-.2 0-.3-.1-.3-.2l-.1.1a.85.85 0 0 1-.2-.6l-.1.1c-.2-.1-.4-.2-.2-.3-.3-.1-.5-.2-.5-.6h-.1c-.2.2-.3.1-.3-.2l.1.1c.1-.1 0-.3 0-.3.1-.6.1-.2.3-.5s.5-.4.1-.8c-.2.1-.2 0-.3 0a1.21 1.21 0 0 0-.5.5h-.1v-.2c-.2.1-.2 0-.3 0 .1-.1.2 0 .2-.2h-.2v-.1c.3-.2 1.1-.6 1 .1.1-.1.1-.1.2-.1a.31.31 0 0 1-.1-.2l.9-.6v-.3c-.3-.1-.5-.2-.8 0-.1-.2-.3-.6-.7-.6v-.1c.5-.1.6.3.9.3a1.49 1.49 0 0 0 .7-.3c0 .1 0 .2.1.1a.45.45 0 0 1 .2-.6c-.3.4 0 .6.2.2a3.08 3.08 0 0 0 .9.1 2.08 2.08 0 0 0-.1-1.1.57.57 0 0 0 .7-.2h.1c0 .4.1 1.8.7 1.2 0 .1-.7 1-.5 1 .5 0 .8 0 1 .6h-.1v.1c.2 0 .2.1.3.1-.1 0-.1.2-.3.1v.1c.2 0 .4.1.3.3h-.1c-.4-.2-.1.2.1.2.2-.4.4-.1.2.2h.2v.1c-.4.1-.3.7-.8.3-.1.2 0 .2.1.2-.1.1-.1.1-.2.1v.1h.1c-.1.2-.2.4.1.6-.3.1-.5.6-.1.7v.1c-.1.1-.2.2-.3.2s.2.2.1.3h.1v-.1h.1a.89.89 0 0 0 .5.8c-.4-.7.4-.6.8-.3.3.1.1.3.5.3.2 0 0 .1.2.1s0-.2-.2-.2v-.1c.5-.2 0-.4-.1-.6.1 0 .2.1.3.1a4.7 4.7 0 0 0-.6-.9c.1.1.3.1.6.1v-.1c-.3 0-.3-.1-.5-.1.3-.4-.2-.3 0-.8h.1c.1.1.2.2.3.2-.3-.5.5-.7.3-1.2 0-.1.2 0 .1-.2h.1c.1.5.4.3.5.8.1-.1.8.5.8.3s.5-.3.5-.3c.8 0 .4-.5.5-.6-.4-.6.1-.9.2-1.5l.1.1c0-.1 0-.2.1-.2-.2-.2-.1-.4 0-.6-.3-.2.4-.7.1-1s-.4 0-.6-.1c0 .4-.2.2-.5.2s-.4-.2-.7-.1a.75.75 0 0 0-.3.3l-.5.6c-.2.1-.6-.1-.7 0-.3-.1-.4.1-.5-.3.1.3.1-.3.1-.3s-.2 0-.3-.1l-.5-.5c-.1-.1-.1-.5-.1-.5-.2-.3-.4-.3-.6-.7.4 0 .2-.6.5-.7l.1.1c.1-.2.1-.5.2-.7-.1-.1-.1-.2-.1-.5h.1c.1.3.1 2.1.9 1.5.2.1.2.1.5 0 .1 0 0 .1.2.1v-.1c-.2 0-.1-.1-.2-.2l.1.1c.1-.6.6-.2.7-.6h.1c-.1 0 .2.1.1.1.1-.3.2-.1.2-.1.1-.2.2-.3.2-.5a.55.55 0 0 0 .5.3.76.76 0 0 0-.2-.5l.1-.1c-.3-.4 0-.5-.2-.9.2.1.2.1.2.4 0 .7.1.4.5.4s.1-.6.3-.6.4-.4.3-.6a1.44 1.44 0 0 0 .3.2 1.47 1.47 0 0 0-.6.5c-.1.3.4.4.1.6a3.33 3.33 0 0 0 .3.6h.1c0-.2 0-.1-.1-.2s-.2-.5 0-.5.7-.4.6.2h.1l.2-.1v.1h.3l.1.1a.27.27 0 0 0-.3.3h.1a1.21 1.21 0 0 0 .5-.5l.1.1c-.1-.2 0-.3-.1-.5h.1c.1.1.3.7.5.5.6.1 0 .9-.1 1.1v.1c.2.1.1.1.2.2-.2-.1-.3 0-.5-.1v.2c-.1 0-.2-.1-.3-.2.1.4.2.9-.3 1 .1.1.1 0 .1.1-.3 0-.2.1-.3.3.4.6.6 2.3 1.4 2.4-.3.2-.4.3-.7.3 0 .1.1.5.3.5s.3.1.2.2v.1h.2v.1c-.4.3.7.4.8.2l.1.1c.4-.2.4-.8.1-1.2.2-.1.9-.5 1.1-.3s-.6 1.4.1 1.4c-.4.7.5.6.9.7a.37.37 0 0 0-.1-.3h.1c.2.2.6.4.5-.1.6 0 .2.4.3.7.1-.3.3-.2.5-.1v-.1h.5c-.3-.3-.5-.3-.7-.6.6-.4.6-.6.6-1.4 0-.5.4-1.1 0-1.5a.6.6 0 0 0-.4-.1c-.1 0-.2-.2-.2-.2-.3 0-.3.1-.5.1-.6-.1-.9-.1-1 .5-.2 0-.1 0-.1-.1-.1.1-.1.1-.2.1.1.1.1.1.2.1a.43.43 0 0 1-.7-.2c.5-.4-.5-.5-.8-.6.2-.4-.1-.9-.3-1.2.2-.1 1.1-.4.7-.7.1-.1.1-.1.2-.1l-.1-.1c.6-.5-.6-1.3-1.1-1a.37.37 0 0 1 .1-.3h.1v.1h.1v-.3h.1v.2h.1c-.2-.6.6-.3.2-.8.1 0 .2 0 .2.1 0-.2.2-.3 0-.3l.1-.1c0-.1-.1-.2-.1-.3.2-.1.3.1.5.2-.2.2-.1.3.1.5-.1.1-.1.1-.2.1.3.1.2 0 .3.1h.1c.1-.2 0-.1.2-.2v.5h-.1v-.1c.3 0 .3 0 .3-.2h.1c-.1.4.2 1 .5.5h-.1v.1H46v-.1c.2 0 .1 0 .1-.1.1.1.1.1.2.1-.1-.1-.1-.2-.2-.3.1 0 .1 0 .2.1 0-.1 0-.2.1-.1s.1.2.1.3c.3-.3.5-.8 0-1 0-.2.5-.5.6-1 0 .1 0-.6.2-.6s.4-.3.4-.5c.4.1 0 .6-.1.9a4.51 4.51 0 0 0-.3 1.1h.1c.1-.1.1-.1.1-.2.2.3-.4 1.3.2 1.4-.1.2-.2.6-.5.6s.6.8.7.9a1.42 1.42 0 0 0 .6.2c.4 0 .7.1.9 0 0 .2-.2.3-.5.2v.1l.2.2c.2-.2.3.3.5.5h.1c.1-.3.3-.3.2-.5.1 0 .2 0 .2-.1.1.2.3.4.5.2.1 0 .1.1.2.1s.1-.1.1-.2c0 .2.1.6.3.3.1-.1-.1-.3-.1-.3 0-.3.3-.7 0-.9v-.1c.2.1.1 0 .2.1a.35.35 0 0 1 .1-.2c.2 0 .1.1.1.1s.1-.1.1-.2c.2.1.3.1.5.2a.1.1 0 0 1 .1-.1v.2h.1v-.2h.1c0 .1.1.1.1.2 0-.2.1-.2.1 0l.1-.1v.3c-.1 0-.1 0-.2-.1.1.3.5 1.4.6.6h.1c.1.2.3 0 .5-.1v-.2h-.1v-.1h.1c-.4-.4.6-.3.3-1h.1l.2.1c0 .1 0 .1-.1.2.2 0 .1.2.3 0a4.33 4.33 0 0 1 .1.5h-.2v.1c.2 0 .1.1.2.2s-.1-.2.1-.1c0 .1.1.1.1.2s-.1 0 0 .2c-.4.3-1.1-.2-1.5.2.3.2.4 1 .7.5h.1c.1.2-.1.2-.1.2s.2.1.2 0c.1.1 0 .2.1.1s-.1-.1-.1-.2c.2.1.3.1.3.3 0-.1.1-.1.1-.2h.1c.1.3.2.3.5.3-.1-.2 0-.3-.1-.5.2 0 .1.1.1.1.2-.2.1-.4-.1-.6h.1c.1.4.3.4.1.8.1 0 .1-.1.2-.1-.1.1.1.2-.1.1v.1c.3 0 .4.2.6 0a1.42 1.42 0 0 0 .6.2v.1c-.4-.2-1.5-.3-1.4.3h-.1c.1.1.3.2.3 0l.1.1c-.3.2.2.4.5.2v.1c-.1.1-.2.1-.3.2a.22.22 0 0 0-.2-.2.9.9 0 0 0 .1.5h-.1c0-.3-.2-.7-.5-.5-.1-.1-.2-.1-.2-.2 0-.4-.3.1-.3.1a.37.37 0 0 0-.3.1c-.1.3.2.4.5.1v.1c-.1 0-.1 0-.2.1a1 1 0 0 0 .7.2v-.1a.32.32 0 0 1-.3-.3c.2.2.7.2.5.6.2 0 .2.1 0 .1l.1.1a.19.19 0 0 0-.3 0v.1c.3 0 .8 0 .5.5.1 0 .1 0 .1.1.1-.1.1-.1.2-.1-.1.1-.1.2 0 .5h.1c0-.2 0 0 .1-.1 0 .1 0 .1-.1.1a.45.45 0 0 0 .5 0v.1h.1c.1-.4.5-.7-.1-.8v-.1c.5.3.4-.2.2-.5.1.1.1.1.2.1 0-.8-.1-.7-.7-.9v-.1c.1 0 .1-.1.2-.1s.1.2.3.1c-.1-.1-.1-.1-.1-.2.3.3.7-.1.5-.6h.2c0-.1-.1-.1-.1-.2s.1 0 .1-.1c.1.1.1.1.2.1 0-.3 0-.4.2-.5v-.1c-.2-.1-.3-.2-.5-.1 0-.1 0-.1-.1-.1.2-.3 0-.5-.3-.5v.1c.4.1.1.4 0 .6h.1v.1c-.3-.2-.3.2-.3.3s-.3.3-.3.1c0-.4.2-.3.2-.7l-.1.1c0-.1.1-.1.1-.2-.2-.1-.1-.3 0-.5l.1.1c-.1-.6.1-.8-.2-1.2.2-.1.6-.3.6-.5 0-.5-.6-.5-.9-.3a.45.45 0 0 0 0-.5 2.2 2.2 0 0 0 .8.1 3.08 3.08 0 0 1 1 .1c0-.1 0-.1-.1-.2h.2v-.1c-.1-.2-.1 0 0-.2h.1v.1h.1c.1-.1.3-.3.2-.5s-.5.1-.5-.2 0-.3-.2-.4c-.1.1-.1.1-.3 0v-.1a1.08 1.08 0 0 0 .6-.1c0-.2-.1-.2 0-.3a.77.77 0 0 0-.2-.3h-.1c-.1.2-.3.3-.5.1v-.1c.3 0 .3 0 .3-.2h.1c.1.1.1.1.1.2.2-.3-.2-.3-.3-.6 0 0-.5 0-.2-.3.1-.1.5.1.3.1.3-.1.5.1.6-.2a2.19 2.19 0 0 1 .5.3h.1v-.1c.2 0 .1.1.1.1.2-.2.5-.4.5-.7h.1c.1.2-.1.2-.1.2s.1.2.3.1c-.1.1 0 .2-.1.5h.1c.2-.2.4 0 .7.1v-.1h.1v.1c-.2.1-.6.3-.5.7h.1c.2-.1.4 0 .7-.1v.1a.76.76 0 0 1-.5.2l-.1.1c.6 0 1.6-.2 1.7-.5-.5-.3-.7.1-.9-.2v-.1c.4.1.9-.1.2-.2v-.1h.1v-.1c-.6 0-.6-.8-.5-1.1h-.1l-.1.1c.2-.2.1-1.2-.3-.9 0-.1 0-.2-.1-.2.2-.2 0 0 0-.2s-.2.1-.2-.2.1 0 .1-.2a.92.92 0 0 1 1-.7v.1l-.1.2h-.1c-.4-.3.1.4.1.7h-.1c-.1-.1-.1 0-.2-.1.2.5.6.6.3 1.2.2 0 .2.1.3.1s.1-.1.1-.2-.1-.1-.2-.1a.61.61 0 0 0 .6-.1 1.58 1.58 0 0 0 .7.7s.2.4.3.1-.1-.4-.2-.6c1.3-.7 0 2.1 1 1h.1c0 .3.2.4.3.6.1-.1.2-.1.2-.3.1.1.9.3.6 0v-.1a.37.37 0 0 0 .3.1c0-.1.1-.3.2-.3.5 0-.1.8-.1.8s.3.4.3.2.5-.3.5-.3c0-.3.9-.3.9-.3.5.1.3.4.7.7.2-.2.1-.9.3-1.1s.5.5.1.6a.412.412 0 1 0 .8-.2h.1c0 .3.1.2.1.5h.1a1.4 1.4 0 0 0 .3-.9h.1a.64.64 0 0 0 0 .6l-.1-.1c-.1.1 0 .3-.1.5.1 0 .1-.1.2-.1-.4.9.2 1.1.1 1.7h.1c.2-.1.1-.2 0-.3a.14.14 0 0 0 0-.2l.2-.2c.1.1.2.1.2.2h.1c.1-.3-.3-.9.2-.9.1 0 .3.6.2.7s.2.1.1.3h.1a1.15 1.15 0 0 0 0-.6c.1-.3.3-.4.2-.8h.1c-.1.4.2.3.2.5 0 0 .7.5.6.5s.8.6.7.1c0 0-.8-.8-.5-.8-.2 0-.1-.3-.2-.3a1.1 1.1 0 0 0-.8 0c.1-.1.1-.2.2-.2v-.1h.5v-.1c.2 0 .2-.1.3-.1-.1-.6.6-.2.3.1.2.1.5.2.7 0-.2.6.2.3.2.3s.5-.1.5 0c.3-.3 0-.7-.1-.9-.2 0-.2.2-.3-.1.3-.2.2-.4.5-.7h.1v.1h.1c0-.1 0-.1-.1-.2.1-.1.1.1.1-.1.2.1 1.6.8 1.6-.2 0-.3.6-.3.7-.5.3-.4-.2-.5 0-1h.1c.2.2.3-.3.5-.6-.1-.1-.2.1-.1-.1.2 0 .1.1.1.1a.38.38 0 0 0 0-.6c-.1 0 .1.2-.1.1v-.1h-.1v.1h-.1c.1-.3.2-.5.6-.5a2.29 2.29 0 0 1 .1-1.4c0-.1.3-.2.5-.2s-.1.2.3.2.1-.2.3-.3c0 0 .4-.5.5-.5s.2-.1.2-.2c0-.3.3-.1.2 0s.8-.3.4-.3c0 0-.3-.3-.4-.3a1.91 1.91 0 0 1 .5-1c-.4-.1-.4-.7.1-.6v-.1l-.1-.2h-.1v.1h-.1a3.54 3.54 0 0 0-.3-1.1c.1.1.6.6.6.3s.3-.1.5-.2c.2-.3.3-.8-.1-.8v-.1c.5-.1-.2-1.1-.6-1.4.1 0 .3 0 .3.1s0 .1.1.1a6 6 0 0 0 .8.8c-.1 0-.2.3-.2.3.3 0 .2.2.2.5 0 .5.1.2.3.2s.7-.1.6-.6h-.1v.1h-.1c.1-.1.1-.2.2-.3-.2-.1-.1-.1-.2-.2.7 0 .1-.2.1-.4s.1-.1.1-.2c0 .2.3-.4.3-.4.3-.3 0-.8.1-1.2 0-.1.2-.1.2-.5 0-.1-.1-.1-.1-.2s-.4-.4-.5-.6c-.1-.8.6-1.1.7-1.7 0-.1.1-.7.1-.7.2 0 .3-.6.3-.7a6.37 6.37 0 0 1 .2-.9c.1 0-.1-.8.1-.9s.6-1.1.4-1.1a6.12 6.12 0 0 0 .5-1.2c-.3 0-.5-.3-.1-.3-.2-.3-.1-.3.1-.5-.3-.6-.4-.9 0-1.4a3.88 3.88 0 0 0 .6-1.1c-.1-.1-.1-.1-.1-.2.3 0 .2-2.1-.2-2.5zM20.4 26c.2.2.6.3.7.6-.3-.1-.7-.2-.7-.6zM5.3 95.1h.1c.1.2 0 0 .1 0a.76.76 0 0 1 .5.2.38.38 0 0 1-.7-.2zm3.9-2.3a3.33 3.33 0 0 1-.6-.3v-.1c.4.1.9-.3 1 .1-.3-.3-.6 0-.4.3zm1.2 11.6h.1a1.88 1.88 0 0 1-.2-.8 2.12 2.12 0 0 1 .3.7c0 .4-.1.3-.2.1zm.2-1.6c0 .3-.2.8-.5.8a1.7 1.7 0 0 1 .6-1h.1zm59.3-3.9c-.2.1-.3.2-.5.3l.1-.1c0-.2.1-.4.3-.3v.1z" class="cls-1"/><path d="M2.7 51.6c0-.1 0-.1.1-.1zm5.9 37.1c.1-.1.1-.1.1-.2h.1c0 .2-.1.2-.2.2zm21 30.2a.1.1 0 0 0-.1.1c-.1-.1 0-.2.1-.1zm6.3-7.3a.37.37 0 0 0-.3-.1c.1 0 .1-.1.3 0zm-25-29.5a.1.1 0 0 1-.1.1V82a.1.1 0 0 1 .1.1M8.5 92.2c-.1-.1-.2-.1-.2-.2.2 0 .1.1.2.2m3.4 16.8a.76.76 0 0 1-.2-.5h.1c0 .3.1.3.2.5h-.1m-5.7 4.6s-.2.2-.1-.2h.1v.2m22.9 4.9c.1-.1-.1-.2.1-.1s0 .1-.1.1m.3.3c-.1-.1-.2.1-.1-.1s0 0 .1.1m.2-1.1v.2h-.1c-.1-.1 0-.1.1-.2s-.2 0-.1-.2h.1v.2m2.5-1.6h.1l-.1.2v-.2m-1.5-8.7c-.1-.1-.2.1-.1-.1s0 0 .1.1m6.6 5.7h.1c-.1.1-.1.1-.1 0m17.7-6.8l-.1-.1c.1-.1.1 0 .1.1M70 99c-.1.1.1.2-.1.1s0 0 .1-.1m-.8.5l.2-.2c0 .2-.1.3-.2.3v-.1m-3.4.4c.1 0 0-.2.2 0-.2.2-.2 0-.2 0m-15.2 5.6c.1.1.2-.1.1.1-.2 0-.1-.1-.1-.1m-4.7-2.5l.1.1h-.2l.1-.1m-6.2 1c0 .1 0 .1-.1.1l.1-.1m-.2-1.4c0 .1.1.1.1.2h-.1v-.2" class="cls-1"/></svg>